<svg xmlns="http://www.w3.org/2000/svg" viewBox="0 0 21.02 21.44"><defs><style>.cls-1{fill:#943716;}</style></defs><g id="Layer_2" data-name="Layer 2"><g id="Layer_1-2" data-name="Layer 1"><path class="cls-1" d="M12.93,8.29a12.94,12.94,0,0,1,1.85,3,2.24,2.24,0,0,0-.4-1.13c-.36-.54-.76-1-1.13-1.57l-.08-.12c.34-.12.4-.19.37-.43-.07.25-.21.36-.38.32a.58.58,0,0,1-.37-.55,1,1,0,0,1,.11-.3.54.54,0,0,0,0-.63C11.49,5,10.17,3.19,8.63,1.52a.12.12,0,0,0-.08,0l.35.61c.91,1.52,2,2.93,3,4.37l.54.76c.15.21.25.2.36,0L12.88,7a.28.28,0,0,1-.05.37s0,0-.06,0-.14.28-.27.26-.18-.19-.24-.31a1.44,1.44,0,0,0-1.18-.77A7.43,7.43,0,0,1,5.43,2.12a4.23,4.23,0,0,1-.36-2,.31.31,0,0,0,0-.1l0-.06a4.1,4.1,0,0,0,.15,1.27A7.17,7.17,0,0,0,7.51,4.62a7.77,7.77,0,0,0,4,1.82h.08L11,5.59c0-.06-.12,0-.18-.06A5.8,5.8,0,0,1,6.42,2.71s0,0,0-.1A6.21,6.21,0,0,0,10.9,5.44C9.7,3.77,8.67,2.05,7.66.32l0,0,.71.8c1.18,1.37,2.35,2.76,3.43,4.23a.27.27,0,0,0,.28.12,7.07,7.07,0,0,0,1.52-.31,1,1,0,0,1-.38.16l-.42.12c-.23,0-.45.09-.68.12s-.13,0-.06.13c.21.26.41.53.62.8a.17.17,0,0,0,.15.07A3.49,3.49,0,0,0,15,5.83,2.08,2.08,0,0,0,15.47,3a1.6,1.6,0,0,0-.67-.53.72.72,0,0,1,.48.22A2,2,0,0,1,15.84,5,2.77,2.77,0,0,1,13.61,6.7c-.19,0-.4.06-.63.09l.59.78c.36.48.36.47,1,.43A9,9,0,0,0,16,7.76a6.26,6.26,0,0,1-2,.36c.18.24.34.47.52.68a.7.7,0,0,1,.16.67,2.42,2.42,0,0,0,.08,1.25l.34,1c.06-.09,0-.15,0-.23.09.21.17.42.26.62a7.59,7.59,0,0,0,.9,1.53,2.73,2.73,0,0,0,.77.62l.82.52a.47.47,0,0,1,.21.32c.05.33.15.65.2,1a1.29,1.29,0,0,1-.52,1.32.58.58,0,0,0-.26.51,3.17,3.17,0,0,0,.26,1.18c0,.08.08.17-.06.21s-.16,0-.17-.15a3.74,3.74,0,0,0-.25-1.1c-.13-.29-.2-.39-.56-.37a1.51,1.51,0,0,1-1.42-1.34,2.44,2.44,0,0,1,.14-1.17c.1-.3.2-.59.28-.89a1.81,1.81,0,0,0-.25-1.38,1.15,1.15,0,0,0-.39-.37.32.32,0,0,1-.19-.29A3.94,3.94,0,0,0,14.07,10L13,8.45A.11.11,0,0,1,12.93,8.29ZM15.61,16a1.39,1.39,0,0,0,.26.91,1.12,1.12,0,0,0,1.41.36A1.1,1.1,0,0,0,18,16a1.72,1.72,0,0,0-1.18-1.34.68.68,0,0,0-.84.25A1.77,1.77,0,0,0,15.61,16Z"/><path class="cls-1" d="M9.85,18.68a4.91,4.91,0,0,0,1.41-1.39,5.44,5.44,0,0,0,.23-6A10.22,10.22,0,0,0,8.74,8.22l-1-.84s-.11-.07-.13-.18l.84.66a13.36,13.36,0,0,1,2.43,2.2,6.48,6.48,0,0,1,1.51,3.11A5.59,5.59,0,0,1,9.68,19a.83.83,0,0,0-.23.19A6.29,6.29,0,0,1,7,21.11a5,5,0,0,1-1.76.33,5.06,5.06,0,0,0,2.31-1.76,3.34,3.34,0,0,1-1.15-.16l.74.08a.66.66,0,0,0,.74-.42,5.49,5.49,0,0,0,.34-4.26s0-.08,0-.11l-.05,0a1.77,1.77,0,0,1-1.75,1.48,1.24,1.24,0,0,1-1.13-.59,2.51,2.51,0,0,0,.31.26,1.53,1.53,0,0,0,2-.33,2.09,2.09,0,0,0,.41-1A.78.78,0,0,0,7.81,14a5.52,5.52,0,0,0-2.25-2.19,3.39,3.39,0,0,0-1.6-.3,11.47,11.47,0,0,1-2.48-.18,1.59,1.59,0,0,1-.55-.2.54.54,0,0,1-.24-.68,3.31,3.31,0,0,0,.14-.71A1.07,1.07,0,0,0,.63,9a2.14,2.14,0,0,1-.25-.41.49.49,0,0,1,.25-.68c.12-.06.13-.1,0-.18A2.28,2.28,0,0,1,.31,7.3a.44.44,0,0,1,.06-.62l.34-.35a.4.4,0,0,0,0-.61,3.71,3.71,0,0,0-.29-.27,1.69,1.69,0,0,1-.26-.28.57.57,0,0,1,.19-.92A5.23,5.23,0,0,1,.93,4,2.37,2.37,0,0,0,2.27,2.58c.16-.4.3-.81.45-1.22A3.68,3.68,0,0,1,3.1.59s0,0,0,0a7.9,7.9,0,0,0-.66,1.69A2.69,2.69,0,0,1,.79,4.16a1.76,1.76,0,0,0-.49.29A.37.37,0,0,0,.2,5a1.27,1.27,0,0,0,.3.35l.29.26a.57.57,0,0,1,0,.9l-.27.27c-.18.19-.19.3,0,.5s.26.31.39.47S1,8,.78,8.07a.33.33,0,0,0-.2.52,1,1,0,0,0,.1.17,1.63,1.63,0,0,1,.25,1.63c-.12.44,0,.62.42.72a8.26,8.26,0,0,0,1.79.21,11.79,11.79,0,0,1,1.68,0,3.7,3.7,0,0,1,1.93,1,5.65,5.65,0,0,1,1.29,7L8,19.5a3.25,3.25,0,0,0,.73-.19,1.42,1.42,0,0,0,.75-.57,8,8,0,0,0,1.57-5A6.44,6.44,0,0,0,8.9,9.17c-.58-.55-1.22-1-1.79-1.6A12.34,12.34,0,0,1,4.41,4a5.38,5.38,0,0,1-.55-2.95A1.87,1.87,0,0,1,4,.54c0,.19-.06.38-.07.57A5.68,5.68,0,0,0,4.8,4.52,13.45,13.45,0,0,0,7.23,7.46c.66.64,1.42,1.17,2.06,1.83a6.66,6.66,0,0,1,2,5.19A8.56,8.56,0,0,1,9.85,18.68ZM6.78,20.87a4.83,4.83,0,0,0,2.11-1.51,4.72,4.72,0,0,1-.89.25.22.22,0,0,0-.17.11A5,5,0,0,1,6.78,20.87Z"/><path class="cls-1" d="M16.37,10.92a2.73,2.73,0,0,1-.53-.29l-.76-.38c-.17-.09-.2,0-.21.14a2.41,2.41,0,0,0,.13.75c0,.08.07.15,0,.26a2.79,2.79,0,0,1-.14-2.16c.25.3.5.57.76.83a11.72,11.72,0,0,0,1.74,1.32,1.76,1.76,0,0,0,1.31.15,2.61,2.61,0,0,1,1.46.23A1.38,1.38,0,0,1,21,13.32a1.51,1.51,0,0,1-1.41,1.25,1.66,1.66,0,0,1-.8-.12.25.25,0,0,0-.37.12.66.66,0,0,1-.24.23.14.14,0,0,1-.2-.05c0-.07,0-.1.06-.15.24-.21.25-.32.09-.59a4.43,4.43,0,0,1-.65-1.68,1.71,1.71,0,0,0-.64-1c-.06-.06-.14-.09-.17-.18a1.84,1.84,0,0,1,1,1.22,1.07,1.07,0,0,0-.42-.88c-.37-.29-.75-.58-1.11-.88s-.51-.3-.67-.63a.61.61,0,0,0,.29.47A4.3,4.3,0,0,1,16.37,10.92Zm3.07,3.31a1.15,1.15,0,0,0,1.13-.74,1,1,0,0,0-.3-1.19,2,2,0,0,0-1.65-.44.7.7,0,0,0-.63.86,1.89,1.89,0,0,0,.65,1.2A1,1,0,0,0,19.44,14.23Z"/><path class="cls-1" d="M11.09,19.17a4.53,4.53,0,0,0,1.63-2,7,7,0,0,0,.46-4.76,6.48,6.48,0,0,0-2-3c-.91-.83-1.93-1.51-2.91-2.26A11.16,11.16,0,0,1,5.76,4.7c-.07-.1-.13-.21-.19-.31l0,0a7.51,7.51,0,0,0,.75.92A18.27,18.27,0,0,0,9,7.41a22.1,22.1,0,0,1,2.7,2.12A6.1,6.1,0,0,1,13.58,13a7.16,7.16,0,0,1-.33,3.31,5.64,5.64,0,0,1-1.4,2.38A2.67,2.67,0,0,1,11.09,19.17Z"/><path class="cls-1" d="M13.87,17.5c.1-.16.21-.32.31-.49a4.77,4.77,0,0,0,.48-3.37A8.18,8.18,0,0,0,11.94,9a.31.31,0,0,1-.14-.17,1.08,1.08,0,0,1,.29.21,7.86,7.86,0,0,1,2.66,4.42,4.77,4.77,0,0,1-.66,3.78l-.18.24Z"/><path class="cls-1" d="M7,5.21A14,14,0,0,0,8.5,6.32a10.94,10.94,0,0,0,3.89,1.54c.12,0,.12,0,.21-.1l.06.26A9.9,9.9,0,0,1,7,5.21Z"/></g></g></svg>