<svg xmlns="http://www.w3.org/2000/svg" viewBox="0 0 748.84 748.84"><defs><style>.cls-1{fill:#fffdfd;stroke:#e65305;stroke-miterlimit:10;stroke-width:2px;}.cls-2{fill:#e65305;}.cls-3{fill:#ab3102;}.cls-4{fill:#e85708;}.cls-5{fill:#aa2f05;}.cls-6{fill:#aa2f06;}.cls-7{fill:#ab3207;}</style></defs><g id="Layer_2" data-name="Layer 2"><g id="Layer_1-2" data-name="Layer 1"><circle class="cls-1" cx="374.42" cy="374.42" r="373.42"/><path class="cls-2" d="M237.3,420.75a27.75,27.75,0,0,1,5.56,9.15,34.17,34.17,0,0,1,1.79,11.57A32.93,32.93,0,0,1,233,467.36q-11.61,10.2-28.81,10.19a53.46,53.46,0,0,1-15.88-2.46,61.14,61.14,0,0,1-13.69-6l-3.59,6.1h-6.69l-1.17-40.6H170a88.49,88.49,0,0,0,4.89,13.57,47,47,0,0,0,7.39,11.32,33.23,33.23,0,0,0,10.15,7.85,29.58,29.58,0,0,0,13.49,2.93A30.29,30.29,0,0,0,216,468.78a17.62,17.62,0,0,0,7-4.26,17.35,17.35,0,0,0,4-6.49,25.86,25.86,0,0,0,1.3-8.57,23.85,23.85,0,0,0-4-13.26,24.71,24.71,0,0,0-11.94-9.32c-3.63-1.44-7.77-3-12.45-4.78s-8.72-3.4-12.11-5a39.18,39.18,0,0,1-15.58-11.81q-5.56-7.31-5.56-19.08a29.17,29.17,0,0,1,2.76-12.61,32.94,32.94,0,0,1,7.85-10.44,35.65,35.65,0,0,1,11.45-6.8,38.87,38.87,0,0,1,13.78-2.47,40.38,40.38,0,0,1,14.66,2.51,70.7,70.7,0,0,1,11.82,5.84l3.42-5.68H239l.67,39.35h-6.76Q231,389.19,228.74,383a45.69,45.69,0,0,0-6-11.19,27.37,27.37,0,0,0-8.77-7.73,25.84,25.84,0,0,0-12.7-2.88,19.41,19.41,0,0,0-13.53,5.09,16.21,16.21,0,0,0-5.59,12.45q0,7.68,3.59,12.74a26.2,26.2,0,0,0,10.44,8.31,129.85,129.85,0,0,0,12,5q5.9,2.13,11.41,4.55a86.51,86.51,0,0,1,9.64,4.93A36.55,36.55,0,0,1,237.3,420.75Z"/><path class="cls-2" d="M379.39,362.54a45,45,0,0,0-6.85,1,21.49,21.49,0,0,0-7.36,2.75c-1.89,1.29-3.2,3.93-3.92,7.94a84.75,84.75,0,0,0-1.09,14.7v51.54a34.29,34.29,0,0,1-4.09,17.12,35.87,35.87,0,0,1-10.77,12A45.65,45.65,0,0,1,331.4,476a53.92,53.92,0,0,1-14,2,59.75,59.75,0,0,1-19.05-2.8,42.59,42.59,0,0,1-14-7.56,31.78,31.78,0,0,1-8.44-10.9,30.21,30.21,0,0,1-2.84-12.82V373.81a11,11,0,0,0-1-4.88,9.19,9.19,0,0,0-3.88-3.64,19.63,19.63,0,0,0-5.35-1.88,41.93,41.93,0,0,0-5.34-.87V356.6h49.36v5.94a39.5,39.5,0,0,0-5.89.75,38.88,38.88,0,0,0-5.22,1.25,6,6,0,0,0-3.8,3.34,13.26,13.26,0,0,0-1,5.09V438.4a50.66,50.66,0,0,0,1.05,10,26.07,26.07,0,0,0,4.13,9.72,24.43,24.43,0,0,0,8.85,7.51q5.61,2.92,15.37,2.92,9.19,0,15.42-2.92a25.62,25.62,0,0,0,9.81-7.68,28.5,28.5,0,0,0,4.84-9.43,35.52,35.52,0,0,0,1.42-9.93V390a70.46,70.46,0,0,0-1.33-15.14q-1.33-5.89-3.93-7.72a22.33,22.33,0,0,0-8-3.26,51.21,51.21,0,0,0-7.73-1.33V356.6h48.45Z"/><path class="cls-3" d="M423,416.82a15.67,15.67,0,0,1,3.13,5.15,19.19,19.19,0,0,1,1,6.51c0,5.89-2.92,10-6.54,14.57-1.56,2-9,5.2-16.21,5.73a24.36,24.36,0,0,1-8.93-1.38,34.91,34.91,0,0,1-7.71-3.36l-2,3.43H382l-.66-22.85h3.81a49.92,49.92,0,0,0,2.75,7.64,26.44,26.44,0,0,0,4.16,6.37,18.75,18.75,0,0,0,5.71,4.42,16.57,16.57,0,0,0,7.59,1.64,17.25,17.25,0,0,0,5.66-.84,10,10,0,0,0,3.92-2.4,9.8,9.8,0,0,0,2.24-3.65,14.86,14.86,0,0,0,.73-4.83,13.41,13.41,0,0,0-2.26-7.45,13.83,13.83,0,0,0-6.72-5.25q-3.06-1.22-7-2.69t-6.82-2.79a22.18,22.18,0,0,1-8.77-6.65q-3.12-4.11-3.12-10.73a16.49,16.49,0,0,1,1.55-7.1,18.44,18.44,0,0,1,4.42-5.87,19.81,19.81,0,0,1,6.44-3.83,21.83,21.83,0,0,1,7.75-1.39,22.73,22.73,0,0,1,8.25,1.41,39.23,39.23,0,0,1,6.65,3.29l1.93-3.2h3.76l.38,22.14H420.5c-.69-2.54-1.47-5-2.33-7.28a25.64,25.64,0,0,0-3.36-6.3,15.42,15.42,0,0,0-4.93-4.35,14.56,14.56,0,0,0-7.15-1.62,10.9,10.9,0,0,0-7.61,2.87,9.1,9.1,0,0,0-3.15,7,12.07,12.07,0,0,0,2,7.17,14.81,14.81,0,0,0,5.87,4.67,73,73,0,0,0,6.75,2.85q3.31,1.2,6.42,2.56a48.47,48.47,0,0,1,5.42,2.77A20.67,20.67,0,0,1,423,416.82Z"/><path class="cls-3" d="M489.73,398.82h-3.24a21.83,21.83,0,0,0-1.53-4,36.57,36.57,0,0,0-2.47-4.39,22.73,22.73,0,0,0-3.09-3.79,6.1,6.1,0,0,0-3.23-1.85c-1-.13-2.2-.22-3.67-.29s-2.84-.09-4.1-.09h-2.73v53.35a6.15,6.15,0,0,0,.66,2.84,4.34,4.34,0,0,0,2.3,2,26.36,26.36,0,0,0,3.55.89,25.42,25.42,0,0,0,4.2.61v3.34H444.89v-3.34c.88-.06,2.22-.18,4-.37a15.68,15.68,0,0,0,3.74-.71,4.54,4.54,0,0,0,2.28-1.76,5.75,5.75,0,0,0,.73-3.08V384.39h-2.73c-1,0-2.18,0-3.62.07s-2.82.15-4.14.31a5.73,5.73,0,0,0-3.22,1.85,25.25,25.25,0,0,0-3.07,3.79,31.47,31.47,0,0,0-2.49,4.49,26.13,26.13,0,0,0-1.51,3.92h-3.29v-18.1h58.14Z"/><path class="cls-3" d="M595,427.59l-1.41,19.83H541.48v-3.34q1.13-.09,3.27-.33a11,11,0,0,0,3-.61,4.07,4.07,0,0,0,2-1.78,6.37,6.37,0,0,0,.63-3V390.6a7,7,0,0,0-.54-2.83,4.09,4.09,0,0,0-2.14-2,15.77,15.77,0,0,0-3-1.1,17.21,17.21,0,0,0-3.22-.64v-3.34h28.16v3.34a21.91,21.91,0,0,0-3.41.47,24.31,24.31,0,0,0-3,.75,3.51,3.51,0,0,0-2.19,1.93,7.31,7.31,0,0,0-.59,2.91v44.8a29.52,29.52,0,0,0,.31,4.82,4.29,4.29,0,0,0,1.43,2.65,6.5,6.5,0,0,0,3.22,1.11,54.17,54.17,0,0,0,6,.25c1.16,0,2.37,0,3.62-.09a30.22,30.22,0,0,0,3.58-.38,17.65,17.65,0,0,0,3-.77,4.85,4.85,0,0,0,2-1.25,41.66,41.66,0,0,0,4.49-6.55,47.12,47.12,0,0,0,3.55-7.12Z"/><path class="cls-4" d="M660.15,399.74a32.33,32.33,0,0,0-18.44-18.12,36.4,36.4,0,0,0-13.38-2.49v4.19a20.14,20.14,0,0,1,9.52,2.22,19.75,19.75,0,0,1,7,6.23,29.87,29.87,0,0,1,4.24,9.78,51.14,51.14,0,0,1,1.45,12.59,52.1,52.1,0,0,1-1.29,12.08,30.09,30.09,0,0,1-4.14,9.68,19.24,19.24,0,0,1-7.12,6.59,20.39,20.39,0,0,1-9.67,2.34V449a36.18,36.18,0,0,0,13.18-2.45,33.1,33.1,0,0,0,11-6.95,31.94,31.94,0,0,0,7.62-11.05,36.64,36.64,0,0,0,2.74-14.43A37.42,37.42,0,0,0,660.15,399.74Z"/><path class="cls-3" d="M599.66,399.74a32.67,32.67,0,0,1,6.91-11.12,29.8,29.8,0,0,1,10.15-7,31.5,31.5,0,0,1,12.38-2.49v4.19a17.55,17.55,0,0,0-8.81,2.22,18.92,18.92,0,0,0-6.49,6.23,31.21,31.21,0,0,0-3.92,9.78,60.58,60.58,0,0,0-.14,24.67,31,31,0,0,0,3.83,9.68,18.39,18.39,0,0,0,6.58,6.59,17.77,17.77,0,0,0,9,2.34V449a31.26,31.26,0,0,1-12.19-2.45,30.42,30.42,0,0,1-10.16-6.95,32.17,32.17,0,0,1-7-11.05,39.31,39.31,0,0,1-2.53-14.43A40,40,0,0,1,599.66,399.74Z"/><path class="cls-4" d="M531.28,315.4a7.68,7.68,0,0,1,1.79.08,8.71,8.71,0,0,1,6,4.26,12.79,12.79,0,0,1,1.55,8.64c-.88,5.45-4.86,9.62-9.45,9.93a7.13,7.13,0,0,1-1.79-.09,8.68,8.68,0,0,1-6-4.25,12.77,12.77,0,0,1-1.55-8.63c.89-5.44,4.85-9.63,9.46-9.94m-13.13,11.17a15.85,15.85,0,0,0,2.19,9.12,13.46,13.46,0,0,0,3.63,3.93l-14.72,23.87,6.46,3.44,13.36-25.3a11.48,11.48,0,0,0,2.41.1c6.2-.42,11.52-5.8,12.66-12.8a16.07,16.07,0,0,0-2-10.92,12.19,12.19,0,0,0-8.52-5.92A12.69,12.69,0,0,0,531,312c-4.75.33-9,3.57-11.2,8.19a3.54,3.54,0,0,0-.93-.08c-1.84.13-3.07,6.83-.71,6.51"/><path class="cls-4" d="M484.9,316.09a8.9,8.9,0,0,1,6.29-4.09,8.08,8.08,0,0,1,1.84,0c4.64.51,8.51,4.9,9.19,10.46a13,13,0,0,1-1.92,8.68,8.79,8.79,0,0,1-6.26,4.1,8.09,8.09,0,0,1-1.84,0c-4.66-.49-8.53-4.89-9.21-10.45a12.92,12.92,0,0,1,1.91-8.69m24.26,53.45a2.09,2.09,0,1,1-2,2.16,2.09,2.09,0,0,1,2-2.16M470.94,308c.39.78,9.45,4.87,8.95,11.58a27.9,27.9,0,0,0-.25,5.57c.75,6.18,4.78,11.24,9.94,12.84l13.88,29.57,4.24,75.69a2.22,2.22,0,0,0,.26.91l1.62,2.77a.29.29,0,0,0,.53-.09l1.25-3.69c0-.1,0-.2,0-.3l4.07-75.3-7.82-3.85-10.72-25.87a12.43,12.43,0,0,0,6.21-5A16.12,16.12,0,0,0,505.59,322c-.88-7-6-12.63-12.17-13.27a11,11,0,0,0-2.63,0,12.2,12.2,0,0,0-5.37,2.13c-3.23,2.23-4.2,3.15-10.94-4.15-1-1.11-4,.43-3.54,1.28"/><rect class="cls-5" x="508.95" y="368.82" width="0.6" height="5.71" transform="translate(-107.51 502.39) rotate(-48.09)"/><path class="cls-6" d="M509.65,447l-1.45-73.59a2.11,2.11,0,0,1-.72-3l-.56-.5.4-.44.56.49a1.44,1.44,0,0,1,.25-.18l-.11-5.95-.37-.18-10.72-25.87a12.43,12.43,0,0,0,6.21-5A16.12,16.12,0,0,0,505.59,322c-.88-7-6-12.63-12.17-13.27a9.52,9.52,0,0,0-1.41-.07c-.41,0-.82,0-1.22.08a12.2,12.2,0,0,0-5.37,2.13c-1.3.9-2.23,1.58-3.32,1.6-1.62,0-3.59-1.39-7.62-5.75a1.46,1.46,0,0,0-1.08-.39c-1.23,0-2.76,1-2.46,1.67.39.78,9.45,4.87,8.95,11.58a27.9,27.9,0,0,0-.25,5.57c.75,6.18,4.78,11.24,9.94,12.84l13.88,29.57,4.24,75.69a2.22,2.22,0,0,0,.26.91l1.62,2.77a.27.27,0,0,0,.07.08M492,311.94a8.61,8.61,0,0,1,1,0c4.64.51,8.51,4.9,9.19,10.46a13,13,0,0,1-1.92,8.68,8.79,8.79,0,0,1-6.26,4.1l-.79.06c-.35,0-.7,0-1.05,0-4.66-.49-8.53-4.89-9.21-10.45a12.92,12.92,0,0,1,1.91-8.69,8.9,8.9,0,0,1,6.29-4.09,5.69,5.69,0,0,1,.83-.06"/><polygon class="cls-5" points="508.16 371.1 508.14 370.28 507.88 370.04 507.32 369.55 506.92 369.99 507.48 370.5 508.16 371.1"/><path class="cls-3" d="M629.82,423.19h-5.89v2.3h5.89a1.15,1.15,0,1,0,0-2.3Z"/><path class="cls-3" d="M629.82,414.76h-5.89v2.31h5.89a1.16,1.16,0,0,0,0-2.31Z"/><path class="cls-3" d="M629.82,427.4h-5.89v2.3h5.89a1.15,1.15,0,0,0,0-2.3Z"/><path class="cls-3" d="M629.82,419h-5.89v2.31h5.89a1.16,1.16,0,0,0,0-2.31Z"/><path class="cls-3" d="M629.82,442.33a1.15,1.15,0,0,0,0-2.3h-5.89v.27a3.46,3.46,0,0,1-.6,2Z"/><path class="cls-3" d="M629.82,435.82h-5.89v2.3h5.89a1.15,1.15,0,0,0,0-2.3Z"/><path class="cls-3" d="M629.82,431.61h-5.89v2.3h5.89a1.15,1.15,0,1,0,0-2.3Z"/><path class="cls-3" d="M629.82,410.55h-5.89v2.31h5.89a1.16,1.16,0,0,0,0-2.31Z"/><path class="cls-3" d="M629.82,385.29h-6.2a3.77,3.77,0,0,1,.31,1.56v.75h5.89a1.16,1.16,0,0,0,0-2.31Z"/><path class="cls-3" d="M619.42,445.55a3.24,3.24,0,0,1,1.54-1h-.74v-2.19h4.35a3.91,3.91,0,0,1-.52-2V440h-3.83v-1.9h3.83v-2.31h-3.83v-1.9h3.83V431.6h-3.83v-1.9h3.83v-2.31h-3.83v-1.91h3.83v-2.3h-3.83v-1.91h3.83V419h-3.83v-1.91h3.83v-2.3h-3.83v-1.91h3.83v-2.3h-3.83v-1.91h3.83v-2.3h-3.83v-1.91h3.83v-2.3h-3.83v-1.91h3.83v-2.3h-3.83V396h3.83V393.7h-3.83v-1.9h3.83v-2.31h-3.83v-1.9h3.83v-.75a4.17,4.17,0,0,1,.28-1.56h-4.11v-1.92h6.35a3,3,0,0,1,1.27,0s-.44-2.7-2.49-2.33c-2.58.46-5.1,1.19-7.65,1.81l-.29,0a3.42,3.42,0,0,1-2,.58,2.42,2.42,0,0,0-1.06.29,7.34,7.34,0,0,0-1.26.86,20.43,20.43,0,0,0-2.87,3.08,2.84,2.84,0,0,1-1.87,1v51.74a3.17,3.17,0,0,1,2.44,1.71c1.21,2.63,5.29,3,7.86,3.24A4,4,0,0,1,619.42,445.55Z"/><path class="cls-3" d="M629.82,406.34h-5.89v2.31h5.89a1.16,1.16,0,0,0,0-2.31Z"/><path class="cls-3" d="M629.82,389.5h-5.89v2.31h5.89a1.16,1.16,0,0,0,0-2.31Z"/><path class="cls-3" d="M629.82,393.71h-5.89V396h5.89a1.16,1.16,0,0,0,0-2.31Z"/><path class="cls-3" d="M629.82,402.13h-5.89v2.31h5.89a1.16,1.16,0,0,0,0-2.31Z"/><path class="cls-3" d="M629.82,397.92h-5.89v2.31h5.89a1.16,1.16,0,0,0,0-2.31Z"/><path class="cls-4" d="M101.26,232.1s71-151.37,256-135.49c0,0,164.45,1.87,232.67,181.28h72.88s-63.54-216.79-299-213C363.83,64.84,183.22,63,101.26,232.1Z"/><path class="cls-7" d="M335.76,122.15c-162-8.1-229.87,145.77-229.87,145.77C78.21,333.24,80.47,389.46,92,432.31h59.41c-7-23.75-7.48-40.42-7.48-40.42C130.81,233.66,261,173.86,261,173.86c167.58-89.71,286.56,74.75,286.56,74.75C470.94,115.92,335.76,122.15,335.76,122.15Z"/><path class="cls-7" d="M333.82,592.8c-53.88-9.83-92.92-29.65-121.21-53H143.39a247.05,247.05,0,0,0,146.43,77c61.08,8.76,126.57-5.43,178.25-39.27,19.29-12.63,39.93-30.43,48.47-52.65.15-.39.3-.79.43-1.19C442.21,608.37,333.82,592.8,333.82,592.8Z"/><path class="cls-4" d="M113.37,534.78s56.06,119,224.26,140.79c0,0,192.49,23,294.65-144.52H559.39s-103,132.68-243.67,114C315.72,645.05,215.53,639.44,113.37,534.78Z"/></g></g></svg>