<svg xmlns="http://www.w3.org/2000/svg" viewBox="0 0 748.84 748.84"><defs><style>.cls-1{fill:#fffdfd;stroke:#e65305;stroke-miterlimit:10;stroke-width:2px;}.cls-2{fill:#e65305;}.cls-3{fill:#ab3102;}.cls-4{fill:#e85708;}.cls-5{fill:#aa2f05;}.cls-6{fill:#aa2f06;}.cls-7,.cls-8{fill:#ab3207;}.cls-8{font-size:45.91px;font-family:Poppins-Regular, Poppins;}</style></defs><g id="Layer_2" data-name="Layer 2"><g id="Layer_1-2" data-name="Layer 1"><circle class="cls-1" cx="374.42" cy="374.42" r="373.42"/><path class="cls-2" d="M244.3,417.78a27.62,27.62,0,0,1,5.55,9.15,33.9,33.9,0,0,1,1.8,11.56A32.93,32.93,0,0,1,240,464.39q-11.61,10.19-28.82,10.19a53,53,0,0,1-15.87-2.47,61.23,61.23,0,0,1-13.7-6l-3.59,6.1h-6.68l-1.17-40.59H177a91.06,91.06,0,0,0,4.89,13.57,47.6,47.6,0,0,0,7.39,11.32,33.66,33.66,0,0,0,10.15,7.85,29.61,29.61,0,0,0,13.49,2.92,30.63,30.63,0,0,0,10.07-1.5,17.64,17.64,0,0,0,7-4.27,17.29,17.29,0,0,0,4-6.48,26.14,26.14,0,0,0,1.3-8.58,23.84,23.84,0,0,0-4-13.25,24.75,24.75,0,0,0-11.95-9.33q-5.43-2.16-12.44-4.78t-12.12-4.95q-10-4.51-15.57-11.82t-5.56-19.08a29.17,29.17,0,0,1,2.76-12.61,32.86,32.86,0,0,1,7.85-10.43,35.45,35.45,0,0,1,11.44-6.81A39.16,39.16,0,0,1,209.38,351a40.35,40.35,0,0,1,14.66,2.5,69.22,69.22,0,0,1,11.82,5.85l3.43-5.68H246l.67,39.34h-6.77Q238,386.2,235.74,380a45.61,45.61,0,0,0-6-11.2,27.31,27.31,0,0,0-8.76-7.72,25.73,25.73,0,0,0-12.7-2.89,19.37,19.37,0,0,0-13.53,5.1,16.22,16.22,0,0,0-5.6,12.45q0,7.68,3.59,12.73a26.34,26.34,0,0,0,10.44,8.31q6.11,2.93,12,5.06t11.4,4.55a85,85,0,0,1,9.65,4.93A36.26,36.26,0,0,1,244.3,417.78Z"/><path class="cls-2" d="M386.38,359.56a46.5,46.5,0,0,0-6.85,1,21.71,21.71,0,0,0-7.35,2.76c-1.89,1.28-3.2,3.93-3.92,7.93A83.81,83.81,0,0,0,367.17,386v51.53a34.35,34.35,0,0,1-4.09,17.13,35.86,35.86,0,0,1-10.78,11.94A45.13,45.13,0,0,1,338.4,473a54,54,0,0,1-14,2,60,60,0,0,1-19-2.8,42.76,42.76,0,0,1-14-7.56,31.75,31.75,0,0,1-8.44-10.9,30.25,30.25,0,0,1-2.84-12.82V370.84a11.1,11.1,0,0,0-1-4.89,9.18,9.18,0,0,0-3.88-3.63,19.54,19.54,0,0,0-5.35-1.88,42.06,42.06,0,0,0-5.35-.88v-5.93h49.37v5.93a42.35,42.35,0,0,0-5.89.75,39.67,39.67,0,0,0-5.22,1.25,6,6,0,0,0-3.8,3.34,13.29,13.29,0,0,0-1,5.09v65.44a51.29,51.29,0,0,0,1,10,26.23,26.23,0,0,0,4.14,9.73,24.53,24.53,0,0,0,8.85,7.51q5.59,2.91,15.37,2.92,9.19,0,15.41-2.92a25.75,25.75,0,0,0,9.82-7.68,28.89,28.89,0,0,0,4.84-9.43,35.64,35.64,0,0,0,1.42-9.94V387a71.21,71.21,0,0,0-1.33-15.15c-.9-3.92-2.2-6.49-3.93-7.72a22.31,22.31,0,0,0-8-3.25,51.43,51.43,0,0,0-7.72-1.34v-5.93h48.44Z"/><path class="cls-3" d="M430,413.85a15.43,15.43,0,0,1,3.12,5.14,19,19,0,0,1,1,6.51c0,5.9-2.92,10-6.53,14.57-1.57,2-9,5.21-16.22,5.74a24.2,24.2,0,0,1-8.93-1.39,34.11,34.11,0,0,1-7.7-3.36l-2,3.43H389l-.65-22.84h3.8a51,51,0,0,0,2.75,7.64,27,27,0,0,0,4.16,6.37,18.68,18.68,0,0,0,5.71,4.41,16.63,16.63,0,0,0,7.59,1.65,17,17,0,0,0,5.67-.85,9.47,9.47,0,0,0,6.15-6.05,14.49,14.49,0,0,0,.73-4.82,13.43,13.43,0,0,0-2.25-7.46,13.92,13.92,0,0,0-6.72-5.25c-2-.81-4.37-1.71-7-2.69s-4.9-1.91-6.81-2.78a22.2,22.2,0,0,1-8.77-6.65q-3.12-4.11-3.12-10.74a16.3,16.3,0,0,1,1.55-7.09,18.22,18.22,0,0,1,4.42-5.88,20,20,0,0,1,6.43-3.83,22.11,22.11,0,0,1,7.76-1.38,22.73,22.73,0,0,1,8.25,1.41,38.85,38.85,0,0,1,6.65,3.29l1.93-3.2h3.76l.37,22.14h-3.81c-.68-2.54-1.46-5-2.32-7.29a25.64,25.64,0,0,0-3.36-6.3,15.44,15.44,0,0,0-4.94-4.34,14.5,14.5,0,0,0-7.14-1.62,10.92,10.92,0,0,0-7.62,2.86,9.11,9.11,0,0,0-3.14,7,12,12,0,0,0,2,7.16,14.67,14.67,0,0,0,5.87,4.68,72.83,72.83,0,0,0,6.75,2.84c2.2.8,4.34,1.66,6.41,2.56a47.83,47.83,0,0,1,5.43,2.78A20.38,20.38,0,0,1,430,413.85Z"/><path class="cls-3" d="M496.73,395.85h-3.25a21.83,21.83,0,0,0-1.53-4,35.38,35.38,0,0,0-2.47-4.4,22.12,22.12,0,0,0-3.08-3.78,6.23,6.23,0,0,0-3.23-1.86c-1-.12-2.2-.22-3.68-.28s-2.84-.09-4.09-.09h-2.74v53.34a6.16,6.16,0,0,0,.66,2.85,4.4,4.4,0,0,0,2.3,2,28.48,28.48,0,0,0,3.55.9,26.65,26.65,0,0,0,4.21.61v3.34H451.89v-3.34c.88-.06,2.22-.19,4-.38a15.7,15.7,0,0,0,3.73-.7,4.53,4.53,0,0,0,2.28-1.77,5.63,5.63,0,0,0,.73-3.07V381.42h-2.72c-1,0-2.18,0-3.62.07s-2.82.15-4.14.3a5.78,5.78,0,0,0-3.22,1.86,24.72,24.72,0,0,0-3.08,3.78,32,32,0,0,0-2.49,4.49,26.66,26.66,0,0,0-1.5,3.93h-3.29v-18.1h58.14Z"/><path class="cls-3" d="M602,424.61l-1.41,19.84H548.48v-3.34q1.13-.09,3.27-.33a11.4,11.4,0,0,0,3-.61,4,4,0,0,0,2-1.79,6.19,6.19,0,0,0,.64-3V387.62a7,7,0,0,0-.54-2.82,4.12,4.12,0,0,0-2.14-2,15.69,15.69,0,0,0-3-1.11,17.22,17.22,0,0,0-3.22-.63v-3.34h28.15v3.34a21,21,0,0,0-3.41.47,25.29,25.29,0,0,0-3,.75,3.49,3.49,0,0,0-2.18,1.93,7.31,7.31,0,0,0-.59,2.91v44.79a28.35,28.35,0,0,0,.31,4.82,4.29,4.29,0,0,0,1.43,2.66,6.47,6.47,0,0,0,3.22,1.1,53.47,53.47,0,0,0,6,.26c1.16,0,2.37,0,3.62-.09a32.55,32.55,0,0,0,3.57-.38,18.1,18.1,0,0,0,3-.78,4.82,4.82,0,0,0,2-1.24,42.54,42.54,0,0,0,4.49-6.56,47.62,47.62,0,0,0,3.55-7.12Z"/><path class="cls-4" d="M667.14,396.76a32.36,32.36,0,0,0-18.43-18.12,36.85,36.85,0,0,0-13.38-2.49v4.19a20.29,20.29,0,0,1,9.52,2.23,19.66,19.66,0,0,1,7,6.23,30,30,0,0,1,4.24,9.77,56.1,56.1,0,0,1,.15,24.68,29.75,29.75,0,0,1-4.14,9.68,19.26,19.26,0,0,1-7.11,6.58,20.27,20.27,0,0,1-9.67,2.34V446a36.17,36.17,0,0,0,13.18-2.44,33.29,33.29,0,0,0,11-7,31.83,31.83,0,0,0,7.61-11,36.71,36.71,0,0,0,2.75-14.43A37.25,37.25,0,0,0,667.14,396.76Z"/><path class="cls-3" d="M606.65,396.76a32.78,32.78,0,0,1,6.91-11.11,29.93,29.93,0,0,1,10.15-7,31.91,31.91,0,0,1,12.39-2.49v4.19a17.65,17.65,0,0,0-8.81,2.23,18.74,18.74,0,0,0-6.49,6.23,31.15,31.15,0,0,0-3.92,9.77,55,55,0,0,0-1.34,12.6,56.59,56.59,0,0,0,1.19,12.08,31.36,31.36,0,0,0,3.83,9.68,18.46,18.46,0,0,0,6.59,6.58,17.65,17.65,0,0,0,9,2.34V446a31.3,31.3,0,0,1-12.2-2.44,30.55,30.55,0,0,1-10.15-7,32.07,32.07,0,0,1-7-11,39.39,39.39,0,0,1-2.54-14.43A40,40,0,0,1,606.65,396.76Z"/><path class="cls-4" d="M538.27,312.42a7.15,7.15,0,0,1,1.79.09,8.69,8.69,0,0,1,6,4.26,12.83,12.83,0,0,1,1.56,8.63c-.88,5.45-4.86,9.62-9.46,9.93a7.15,7.15,0,0,1-1.79-.08,8.67,8.67,0,0,1-6-4.26,12.76,12.76,0,0,1-1.55-8.63c.89-5.44,4.85-9.62,9.45-9.94M525.15,323.6a15.81,15.81,0,0,0,2.19,9.12,13.39,13.39,0,0,0,3.62,3.92l-14.72,23.88,6.47,3.44,13.36-25.3a10.72,10.72,0,0,0,2.4.09c6.21-.42,11.52-5.8,12.66-12.79a16,16,0,0,0-2-10.92A12,12,0,0,0,538,309c-4.75.33-9,3.57-11.2,8.19a3.58,3.58,0,0,0-.93-.09c-1.84.13-3.08,6.83-.71,6.52"/><path class="cls-4" d="M491.9,313.12a8.87,8.87,0,0,1,6.29-4.1,8,8,0,0,1,1.83,0c4.65.5,8.52,4.9,9.2,10.45a12.94,12.94,0,0,1-1.92,8.68,8.79,8.79,0,0,1-6.27,4.1,7,7,0,0,1-1.83,0c-4.66-.49-8.53-4.88-9.21-10.44a12.92,12.92,0,0,1,1.91-8.69m24.26,53.44a2.1,2.1,0,1,1-2,2.16,2.09,2.09,0,0,1,2-2.16m-38.22-61.5c.38.78,9.44,4.86,8.94,11.57a29.51,29.51,0,0,0-.25,5.57c.76,6.18,4.79,11.25,9.94,12.84l13.89,29.57,4.24,75.7a2.22,2.22,0,0,0,.26.91l1.61,2.76a.29.29,0,0,0,.53-.08l1.25-3.69a1.65,1.65,0,0,0,0-.31l4.07-75.3-7.82-3.85-10.72-25.86a12.46,12.46,0,0,0,6.22-5,16.07,16.07,0,0,0,2.44-10.83c-.87-7-6-12.64-12.16-13.28a11.66,11.66,0,0,0-2.64,0,12.07,12.07,0,0,0-5.37,2.12c-3.22,2.24-4.19,3.15-10.94-4.14-1-1.12-3.94.43-3.53,1.28"/><rect class="cls-5" x="515.94" y="365.85" width="0.6" height="5.71" transform="translate(-102.97 506.61) rotate(-48.09)"/><path class="cls-6" d="M516.64,444.07l-1.44-73.6a2.06,2.06,0,0,1-1.05-1.75,2,2,0,0,1,.33-1.2l-.56-.5.4-.45.55.5a2.48,2.48,0,0,1,.26-.19l-.12-5.94-.37-.19-10.72-25.86a12.46,12.46,0,0,0,6.22-5,16.07,16.07,0,0,0,2.44-10.83c-.87-7-6-12.64-12.16-13.28a9.58,9.58,0,0,0-1.42-.07c-.4,0-.81,0-1.22.09a12.07,12.07,0,0,0-5.37,2.12c-1.29.9-2.23,1.59-3.32,1.61-1.62,0-3.59-1.4-7.62-5.75a1.36,1.36,0,0,0-1.08-.39c-1.23,0-2.75,1-2.45,1.67s9.44,4.86,8.94,11.57a29.51,29.51,0,0,0-.25,5.57c.76,6.18,4.79,11.25,9.94,12.84l13.89,29.57,4.24,75.7a2.22,2.22,0,0,0,.26.91l1.61,2.76a.35.35,0,0,0,.07.09M499,309a8.44,8.44,0,0,1,1,.05c4.65.5,8.52,4.9,9.2,10.45a12.94,12.94,0,0,1-1.92,8.68,8.79,8.79,0,0,1-6.27,4.1,5.12,5.12,0,0,1-.78.06,7.38,7.38,0,0,1-1.05-.05c-4.66-.49-8.53-4.88-9.21-10.44a12.92,12.92,0,0,1,1.91-8.69,8.87,8.87,0,0,1,6.29-4.1c.27,0,.55,0,.82-.06"/><polygon class="cls-5" points="515.15 368.13 515.14 367.31 514.87 367.07 514.32 366.57 513.92 367.02 514.48 367.52 515.15 368.13"/><path class="cls-3" d="M636.82,420.21h-5.89v2.31h5.89a1.16,1.16,0,0,0,0-2.31Z"/><path class="cls-3" d="M636.82,411.79h-5.89v2.31h5.89a1.16,1.16,0,0,0,0-2.31Z"/><path class="cls-3" d="M636.82,424.42h-5.89v2.31h5.89a1.16,1.16,0,0,0,0-2.31Z"/><path class="cls-3" d="M636.82,416h-5.89v2.31h5.89a1.16,1.16,0,0,0,0-2.31Z"/><path class="cls-3" d="M636.82,439.36a1.16,1.16,0,0,0,0-2.31h-5.89v.28a3.51,3.51,0,0,1-.6,2Z"/><path class="cls-3" d="M636.82,432.84h-5.89v2.31h5.89a1.16,1.16,0,0,0,0-2.31Z"/><path class="cls-3" d="M636.82,428.63h-5.89v2.31h5.89a1.16,1.16,0,0,0,0-2.31Z"/><path class="cls-3" d="M636.82,407.58h-5.89v2.31h5.89a1.16,1.16,0,0,0,0-2.31Z"/><path class="cls-3" d="M636.82,382.32h-6.21a3.72,3.72,0,0,1,.32,1.55v.76h5.89a1.16,1.16,0,0,0,0-2.31Z"/><path class="cls-3" d="M626.41,442.58a3.15,3.15,0,0,1,1.55-1h-.74v-2.2h4.35a3.91,3.91,0,0,1-.52-2V437h-3.83v-1.9h3.83v-2.31h-3.83v-1.9h3.83v-2.31h-3.83v-1.9h3.83v-2.31h-3.83v-1.9h3.83V420.2h-3.83v-1.9h3.83V416h-3.83v-1.9h3.83v-2.31h-3.83v-1.9h3.83v-2.31h-3.83v-1.9h3.83v-2.31h-3.83v-1.9h3.83v-2.31h-3.83v-1.9h3.83v-2.31h-3.83V393h3.83v-2.31h-3.83v-1.9h3.83v-2.31h-3.83v-1.9h3.83v-.76a4.29,4.29,0,0,1,.27-1.55h-4.1v-1.92h6.34a3.07,3.07,0,0,1,1.28,0s-.44-2.7-2.5-2.34c-2.57.47-5.1,1.2-7.64,1.81a1.45,1.45,0,0,1-.29,0,3.52,3.52,0,0,1-2,.59,2.29,2.29,0,0,0-1.06.29,6.6,6.6,0,0,0-1.26.85,20,20,0,0,0-2.87,3.09,2.85,2.85,0,0,1-1.87,1v51.74a3.24,3.24,0,0,1,2.44,1.72c1.21,2.62,5.29,3,7.85,3.23A4.5,4.5,0,0,1,626.41,442.58Z"/><path class="cls-3" d="M636.82,403.37h-5.89v2.31h5.89a1.16,1.16,0,0,0,0-2.31Z"/><path class="cls-3" d="M636.82,386.53h-5.89v2.31h5.89a1.16,1.16,0,0,0,0-2.31Z"/><path class="cls-3" d="M636.82,390.74h-5.89v2.31h5.89a1.16,1.16,0,0,0,0-2.31Z"/><path class="cls-3" d="M636.82,399.16h-5.89v2.31h5.89a1.16,1.16,0,0,0,0-2.31Z"/><path class="cls-3" d="M636.82,395h-5.89v2.31h5.89a1.16,1.16,0,0,0,0-2.31Z"/><path class="cls-4" d="M101.26,232.1s71-151.37,256-135.49c0,0,164.45,1.87,232.67,181.28h72.88s-63.54-216.79-299-213C363.83,64.84,183.22,63,101.26,232.1Z"/><path class="cls-7" d="M335.76,122.15c-162-8.1-229.87,145.77-229.87,145.77C78.21,333.24,80.47,389.46,92,432.31h59.41c-7-23.75-7.48-40.42-7.48-40.42C130.81,233.66,261,173.86,261,173.86c167.58-89.71,286.56,74.75,286.56,74.75C470.94,115.92,335.76,122.15,335.76,122.15Z"/><path class="cls-7" d="M333.82,592.8c-53.88-9.83-92.92-29.65-121.21-53H143.39a247.05,247.05,0,0,0,146.43,77c61.08,8.76,126.57-5.43,178.25-39.27,19.29-12.63,39.93-30.43,48.47-52.65.15-.39.3-.79.43-1.19C442.21,608.37,333.82,592.8,333.82,592.8Z"/><path class="cls-4" d="M113.37,534.78s56.06,119,224.26,140.79c0,0,192.49,23,294.65-144.52H559.39s-103,132.68-243.67,114C315.72,645.05,215.53,639.44,113.37,534.78Z"/><text class="cls-8" transform="translate(460.45 495.39)">Salon</text></g></g></svg>