<svg xmlns="http://www.w3.org/2000/svg" viewBox="0 0 17.84 22.74"><defs><style>.cls-1{fill:#943716;}</style></defs><g id="Layer_2" data-name="Layer 2"><g id="Layer_1-2" data-name="Layer 1"><path class="cls-1" d="M17.84,20.51s0,.1,0,.14a1.15,1.15,0,0,1-2.28-.25V12.24c0-.23,0-.2-.2-.2H11.25a.58.58,0,0,1-.55-.33.58.58,0,0,1,0-.63.64.64,0,0,1,.59-.28h4.09c.1,0,.13,0,.12-.12s0-.22,0-.32,0-.09-.08-.09H11.26a.62.62,0,0,1-.6-.4.6.6,0,0,1,.2-.69A.65.65,0,0,1,11.3,9h4.06c.17,0,.17,0,.17-.17V8.59c0-.06,0-.08-.08-.08h-4.2a.61.61,0,0,1-.52-1,.58.58,0,0,1,.43-.26h4.2c.17,0,.17,0,.17-.16s.05-.27,0-.34-.22,0-.34,0H11.27a.6.6,0,0,1-.64-.66.59.59,0,0,1,.54-.56h4.2c.16,0,.16,0,.16-.16V5.07c0-.06,0-.08-.08-.08H11.28a.62.62,0,1,1-.08-1.23h4.17c.16,0,.16,0,.16-.16a2.43,2.43,0,0,1,0-.27c0-.08,0-.11-.1-.1H11.26a.61.61,0,0,1-.56-.9A.57.57,0,0,1,11.26,2h4.15c.09,0,.13,0,.12-.12a1.71,1.71,0,0,1,0-.32c0-.07,0-.09-.1-.09H11.27a.6.6,0,0,1-.52-.25.56.56,0,0,1-.06-.63A.58.58,0,0,1,11.2.24h5.52a1.1,1.1,0,0,1,1.09.87s0,.1,0,.14Zm-.44-9.63V1.42a.68.68,0,0,0-.75-.75H11.23c-.11,0-.17.07-.17.18a.18.18,0,0,0,.16.19H15.8C16,1,16,1,16,1.19c0,.36,0,.73,0,1.1,0,.12,0,.14-.15.14h-4.6a.18.18,0,0,0-.15.18.16.16,0,0,0,.15.18h4.6c.11,0,.16,0,.15.14,0,.37,0,.75,0,1.12,0,.11,0,.13-.14.13H11.23a.18.18,0,0,0-.17.18.18.18,0,0,0,.15.19h4.61c.1,0,.14,0,.14.14,0,.37,0,.73,0,1.1C16,6,16,6,15.81,6h-4.6a.17.17,0,0,0-.15.18.18.18,0,0,0,.16.18h4.62c.09,0,.12,0,.12.12v1.1c0,.18,0,.17-.17.17H11.21a.17.17,0,0,0-.15.19c0,.1.06.15.16.17h4.61c.1,0,.13,0,.13.13V9.32c0,.15,0,.15-.15.15H11.19a.19.19,0,0,0,0,.36h4.62c.11,0,.13,0,.13.14v1.1c0,.15,0,.15-.16.15H11.35a.41.41,0,0,0-.16,0,.15.15,0,0,0-.13.13.19.19,0,0,0,.07.19.29.29,0,0,0,.18,0h4.5c.15,0,.15,0,.15.14v8.68a.71.71,0,0,0,.82.69.72.72,0,0,0,.62-.76Z"/><path class="cls-1" d="M0,19.51c0-.11,0-.22.07-.34a2.47,2.47,0,0,1,3.22-1.82c.11,0,.13,0,.13-.09,0-1.42,0-2.84,0-4.26,0-.53.07-1.06.11-1.59,0-.81.11-1.62.17-2.43s.14-1.86.2-2.79L4.07,3.8c.07-1,.14-2,.22-3,0-.07,0-.14,0-.21A.45.45,0,0,1,4.6.11c.11,0,.23-.06.34-.11h.23l.3.09a.51.51,0,0,1,.36.48c0,.91.13,1.82.19,2.72s.11,1.55.17,2.33.13,1.85.2,2.78.12,1.61.17,2.42c.05.64.11,1.28.14,1.92,0,.46,0,.92,0,1.39v3.08c0,.17,0,.17.15.12a2.5,2.5,0,0,1,3.22,2A2.39,2.39,0,0,1,9.75,21c0,.08,0,.11,0,.16a3.51,3.51,0,0,1,1.05.9.41.41,0,0,1-.18.66l-.08,0h-.12a.58.58,0,0,1-.25-.15,2.52,2.52,0,0,0-1.1-.75.24.24,0,0,0-.23,0,2.42,2.42,0,0,1-2.61-.06,2.4,2.4,0,0,1-1.14-2.14v-4s0-.06-.07-.06-.07,0-.07.06v4a2.58,2.58,0,0,1-.29,1.22,2.49,2.49,0,0,1-4.63-.61A2,2,0,0,0,0,19.91ZM9.71,21.6l-.1-.06-.28-.14c-.21-.09-.25-.23-.1-.41a1.93,1.93,0,0,0,.44-1.11A2,2,0,0,0,8.75,18a2,2,0,0,0-2.1-.1c-.23.12-.37,0-.37-.23,0-1.27,0-2.55,0-3.82,0-1-.07-1.94-.14-2.9s-.14-2-.22-3c-.06-.8-.11-1.6-.17-2.4s-.13-1.86-.2-2.79L5.4.64c0-.06,0-.15-.1-.14s0,.09,0,.14c0,2.42,0,4.84,0,7.26v3.76a.21.21,0,0,1-.23.22.2.2,0,0,1-.2-.23V11c0-2.58,0-5.15,0-7.73V.62s0-.11,0-.12-.07.07-.07.12L4.7,1c-.07.91-.14,1.82-.2,2.73L4.35,5.86c-.08,1-.15,2.05-.22,3.07C4.07,9.74,4,10.55,4,11.36c0,.6-.11,1.2-.11,1.81,0,1.5,0,3,0,4.5,0,.25-.15.34-.36.23A2,2,0,0,0,.46,20a2.06,2.06,0,0,0,3.19,1.44,2,2,0,0,0,.91-1.72V15.4c0-.2.07-.28.27-.28h.44c.23,0,.29.06.29.3,0,1.43,0,2.87,0,4.3a2,2,0,0,0,1.1,1.8,1.94,1.94,0,0,0,2.07-.1.4.4,0,0,1,.38,0Z"/><path class="cls-1" d="M4.13,19.73a1.63,1.63,0,1,1-3.26-.06,1.63,1.63,0,0,1,3.26.06Zm-.43,0a1.2,1.2,0,1,0-1.19,1.2A1.2,1.2,0,0,0,3.7,19.7Z"/><path class="cls-1" d="M7.63,18.08a1.61,1.61,0,0,1,1.62,1.65,1.63,1.63,0,1,1-1.62-1.65Zm0,.43A1.2,1.2,0,1,0,8.82,19.7,1.19,1.19,0,0,0,7.63,18.51Z"/><path class="cls-1" d="M5.06,14.48a1,1,0,1,1,1-1A1,1,0,0,1,5.06,14.48Zm0-1.54a.56.56,0,0,0-.56.55.56.56,0,1,0,1.12,0A.54.54,0,0,0,5.06,12.94Z"/></g></g></svg>