<svg xmlns="http://www.w3.org/2000/svg" viewBox="0 0 499.63 218.26"><defs><style>.cls-1{fill:#e65305;}.cls-2{fill:#ab3102;}.cls-3{fill:#e85708;}.cls-4{fill:#aa2f05;}.cls-5{fill:#aa2f06;}.cls-6{font-size:45.91px;fill:#ab3207;font-family:Poppins-Regular, Poppins;}</style></defs><g id="Layer_2" data-name="Layer 2"><g id="Layer_1-2" data-name="Layer 1"><path class="cls-1" d="M74.09,114.39a27.72,27.72,0,0,1,5.55,9.15,33.92,33.92,0,0,1,1.8,11.57A32.93,32.93,0,0,1,69.83,161Q58.22,171.2,41,171.19a53.34,53.34,0,0,1-15.87-2.46,61.69,61.69,0,0,1-13.7-6l-3.59,6.1H1.17L0,128.26H6.76a91.06,91.06,0,0,0,4.89,13.57A47.6,47.6,0,0,0,19,153.15,33.5,33.5,0,0,0,29.19,161a29.61,29.61,0,0,0,13.49,2.92,30.63,30.63,0,0,0,10.07-1.5,17.53,17.53,0,0,0,7-4.27,17.29,17.29,0,0,0,4-6.48A26.12,26.12,0,0,0,65,143.1a23.85,23.85,0,0,0-4-13.26A24.75,24.75,0,0,0,49,120.51q-5.43-2.16-12.44-4.78c-4.68-1.74-8.72-3.4-12.12-5A39.22,39.22,0,0,1,8.9,99Q3.34,91.67,3.34,79.89A29.14,29.14,0,0,1,6.1,67.28,32.79,32.79,0,0,1,14,56.84,35.45,35.45,0,0,1,25.39,50a39.16,39.16,0,0,1,13.78-2.46,40.35,40.35,0,0,1,14.66,2.5,70.72,70.72,0,0,1,11.82,5.85l3.43-5.68h6.68l.67,39.34H69.66q-1.83-6.76-4.13-12.94a46,46,0,0,0-6-11.2,27.43,27.43,0,0,0-8.76-7.72,25.84,25.84,0,0,0-12.7-2.88,19.41,19.41,0,0,0-13.53,5.09A16.22,16.22,0,0,0,19,72.38q0,7.68,3.59,12.74A26.52,26.52,0,0,0,33,93.43a130,130,0,0,0,12,5q5.9,2.13,11.4,4.55A85,85,0,0,1,66,108,36.26,36.26,0,0,1,74.09,114.39Z" transform="translate(0 0)"/><path class="cls-1" d="M216.17,56.17a46.5,46.5,0,0,0-6.85,1A21.63,21.63,0,0,0,202,59.93q-2.83,1.92-3.92,7.94A83.77,83.77,0,0,0,197,82.57V134.1a34.33,34.33,0,0,1-4.09,17.13,35.86,35.86,0,0,1-10.78,11.94,45.39,45.39,0,0,1-13.9,6.48,54.37,54.37,0,0,1-14,2,59.73,59.73,0,0,1-19-2.8,42.39,42.39,0,0,1-14-7.56,31.75,31.75,0,0,1-8.44-10.9,30.21,30.21,0,0,1-2.84-12.82V67.45a11.1,11.1,0,0,0-1-4.89A9.18,9.18,0,0,0,105,58.93a19.54,19.54,0,0,0-5.35-1.88,43.94,43.94,0,0,0-5.35-.88V50.24h49.37v5.93a42.35,42.35,0,0,0-5.89.75,39.34,39.34,0,0,0-5.22,1.26,6,6,0,0,0-3.8,3.33,13.31,13.31,0,0,0-1,5.1V132a51.21,51.21,0,0,0,1,10,26.23,26.23,0,0,0,4.14,9.73,24.53,24.53,0,0,0,8.85,7.51q5.59,2.92,15.37,2.92,9.2,0,15.41-2.92a25.75,25.75,0,0,0,9.82-7.68,28.89,28.89,0,0,0,4.84-9.43,35.52,35.52,0,0,0,1.42-9.93V83.63a70.54,70.54,0,0,0-1.34-15.15c-.89-3.92-2.19-6.49-3.92-7.72a22.5,22.5,0,0,0-8-3.25,52.77,52.77,0,0,0-7.72-1.34V50.24h48.44Z" transform="translate(0 0)"/><path class="cls-2" d="M259.78,110.46a15.47,15.47,0,0,1,3.12,5.15,18.94,18.94,0,0,1,1,6.51c0,5.89-2.92,10-6.53,14.57-1.57,2-9,5.2-16.22,5.73a24.2,24.2,0,0,1-8.93-1.39,34.11,34.11,0,0,1-7.7-3.36l-2,3.43h-3.76l-.66-22.84h3.81a51,51,0,0,0,2.75,7.64,27,27,0,0,0,4.16,6.37,18.87,18.87,0,0,0,5.71,4.42,16.76,16.76,0,0,0,7.59,1.64,17,17,0,0,0,5.67-.85,9.48,9.48,0,0,0,6.15-6,14.6,14.6,0,0,0,.73-4.83,13.43,13.43,0,0,0-2.25-7.46,14,14,0,0,0-6.72-5.25c-2-.81-4.38-1.7-7-2.69s-4.9-1.91-6.81-2.78a22.1,22.1,0,0,1-8.77-6.65Q220,97.67,220,91A16.3,16.3,0,0,1,221.52,84a18.33,18.33,0,0,1,4.42-5.88,20,20,0,0,1,6.43-3.83,22.11,22.11,0,0,1,7.76-1.38,22.73,22.73,0,0,1,8.25,1.41A38.85,38.85,0,0,1,255,77.56l1.93-3.2h3.76l.37,22.14h-3.81c-.68-2.54-1.46-5-2.32-7.29a25.75,25.75,0,0,0-3.36-6.29,15.45,15.45,0,0,0-4.94-4.35A14.5,14.5,0,0,0,239.52,77a10.92,10.92,0,0,0-7.62,2.86,9.13,9.13,0,0,0-3.14,7,12,12,0,0,0,2,7.16,14.67,14.67,0,0,0,5.87,4.68,73,73,0,0,0,6.75,2.85c2.2.79,4.34,1.65,6.41,2.56a47.76,47.76,0,0,1,5.43,2.77A20.38,20.38,0,0,1,259.78,110.46Z" transform="translate(0 0)"/><path class="cls-2" d="M326.52,92.46h-3.25a21.83,21.83,0,0,0-1.53-4,35.38,35.38,0,0,0-2.47-4.4,22.12,22.12,0,0,0-3.08-3.78A6.23,6.23,0,0,0,313,78.4c-1-.12-2.2-.21-3.68-.28s-2.84-.09-4.09-.09h-2.74v53.34a6.16,6.16,0,0,0,.66,2.85,4.42,4.42,0,0,0,2.3,2,29.08,29.08,0,0,0,3.55.89,25.51,25.51,0,0,0,4.21.61v3.34H281.68v-3.34c.88-.06,2.22-.19,4-.38a15.19,15.19,0,0,0,3.73-.7,4.57,4.57,0,0,0,2.28-1.76,5.69,5.69,0,0,0,.73-3.08V78h-2.72c-1,0-2.18,0-3.62.07s-2.82.15-4.14.3a5.78,5.78,0,0,0-3.22,1.86A24.72,24.72,0,0,0,275.66,84a32,32,0,0,0-2.49,4.49,27.09,27.09,0,0,0-1.5,3.93h-3.29V74.36h58.14Z" transform="translate(0 0)"/><path class="cls-2" d="M431.8,121.22l-1.41,19.84H378.27v-3.34q1.13-.09,3.27-.33a11.4,11.4,0,0,0,3-.61,4,4,0,0,0,2-1.79,6.18,6.18,0,0,0,.64-3V84.23a7,7,0,0,0-.54-2.82,4.12,4.12,0,0,0-2.14-2,15.69,15.69,0,0,0-3-1.11,17.22,17.22,0,0,0-3.22-.63V74.36h28.15V77.7a22.23,22.23,0,0,0-3.41.47,25.29,25.29,0,0,0-3,.75,3.51,3.51,0,0,0-2.18,1.93,7.31,7.31,0,0,0-.59,2.91v44.79a28.35,28.35,0,0,0,.31,4.82A4.29,4.29,0,0,0,399,136a6.47,6.47,0,0,0,3.22,1.1,51.15,51.15,0,0,0,6,.26c1.16,0,2.37,0,3.62-.09a32.55,32.55,0,0,0,3.57-.38,19.14,19.14,0,0,0,3-.77,4.83,4.83,0,0,0,2.05-1.25,42.54,42.54,0,0,0,4.49-6.56,47.62,47.62,0,0,0,3.55-7.12Z" transform="translate(0 0)"/><path class="cls-3" d="M496.93,93.37A32.36,32.36,0,0,0,478.5,75.25a36.64,36.64,0,0,0-13.38-2.48V77a20.29,20.29,0,0,1,9.52,2.23,19.66,19.66,0,0,1,7,6.23,30,30,0,0,1,4.24,9.77,56.1,56.1,0,0,1,.15,24.68,29.75,29.75,0,0,1-4.14,9.68,19.17,19.17,0,0,1-7.11,6.58,20.31,20.31,0,0,1-9.67,2.35v4.18a36,36,0,0,0,13.18-2.44,33.43,33.43,0,0,0,11-7,31.87,31.87,0,0,0,7.61-11,36.64,36.64,0,0,0,2.75-14.43A37.29,37.29,0,0,0,496.93,93.37Z" transform="translate(0 0)"/><path class="cls-2" d="M436.44,93.37a32.78,32.78,0,0,1,6.91-11.11,30.07,30.07,0,0,1,10.15-7,31.72,31.72,0,0,1,12.39-2.48V77a17.63,17.63,0,0,0-8.81,2.23,18.74,18.74,0,0,0-6.49,6.23,31.15,31.15,0,0,0-3.92,9.77,55.1,55.1,0,0,0-1.34,12.6,56.52,56.52,0,0,0,1.19,12.08,31.36,31.36,0,0,0,3.83,9.68,18.38,18.38,0,0,0,6.59,6.58,17.65,17.65,0,0,0,8.95,2.35v4.18a31.12,31.12,0,0,1-12.2-2.44,30.67,30.67,0,0,1-10.15-7,32.12,32.12,0,0,1-7.05-11A39.31,39.31,0,0,1,434,107.78,40.07,40.07,0,0,1,436.44,93.37Z" transform="translate(0 0)"/><path class="cls-3" d="M368.06,9a7.66,7.66,0,0,1,1.79.09,8.69,8.69,0,0,1,6,4.26A12.83,12.83,0,0,1,377.44,22c-.88,5.45-4.86,9.62-9.46,9.93a7.15,7.15,0,0,1-1.79-.08,8.64,8.64,0,0,1-6-4.26A12.76,12.76,0,0,1,358.61,19c.89-5.44,4.85-9.62,9.45-9.94M354.94,20.21a15.81,15.81,0,0,0,2.19,9.12,13.43,13.43,0,0,0,3.62,3.93L346,57.13l6.47,3.44,13.36-25.3a11.36,11.36,0,0,0,2.4.1c6.21-.42,11.52-5.81,12.66-12.8a16,16,0,0,0-2-10.92,12,12,0,0,0-11.13-6.06c-4.75.33-9,3.57-11.2,8.19a3.58,3.58,0,0,0-.93-.09c-1.84.13-3.08,6.83-.71,6.52" transform="translate(0 0)"/><path class="cls-3" d="M321.69,9.73A8.9,8.9,0,0,1,328,5.63a8,8,0,0,1,1.83,0c4.65.5,8.52,4.9,9.2,10.46a13,13,0,0,1-1.92,8.68,8.81,8.81,0,0,1-6.27,4.09,7,7,0,0,1-1.83,0c-4.66-.48-8.53-4.88-9.21-10.44a12.92,12.92,0,0,1,1.91-8.69M346,63.18a2.09,2.09,0,1,1-2,2.16,2.08,2.08,0,0,1,2-2.16M307.73,1.67c.38.78,9.44,4.86,8.94,11.57a29.58,29.58,0,0,0-.25,5.58c.76,6.17,4.79,11.24,9.94,12.83l13.89,29.58,4.24,75.69a2.22,2.22,0,0,0,.26.91l1.61,2.77a.29.29,0,0,0,.53-.09l1.25-3.69a1.55,1.55,0,0,0,0-.31l4.07-75.3-7.82-3.84L333.71,31.5a12.46,12.46,0,0,0,6.22-5,16.07,16.07,0,0,0,2.44-10.83c-.87-7-6-12.64-12.16-13.28a11.66,11.66,0,0,0-2.64,0,12,12,0,0,0-5.37,2.13C319,6.77,318,7.68,311.26.39c-1-1.11-3.94.43-3.53,1.28" transform="translate(0 0)"/><rect class="cls-4" x="345.73" y="62.46" width="0.6" height="5.71" transform="translate(66.29 279.2) rotate(-48.09)"/><path class="cls-5" d="M346.43,140.68,345,67.08a2,2,0,0,1-1.05-1.74,2,2,0,0,1,.33-1.21l-.56-.5.4-.45.55.5a2.48,2.48,0,0,1,.26-.19l-.12-5.94-.37-.18L333.71,31.5a12.46,12.46,0,0,0,6.22-5,16.07,16.07,0,0,0,2.44-10.83c-.87-7-6-12.64-12.16-13.28a11.16,11.16,0,0,0-1.42-.06,10.13,10.13,0,0,0-1.22.08,12,12,0,0,0-5.37,2.13c-1.29.9-2.23,1.58-3.32,1.6-1.62,0-3.59-1.39-7.62-5.75A1.36,1.36,0,0,0,310.18,0c-1.23,0-2.75,1-2.45,1.67.38.78,9.44,4.86,8.94,11.57a29.58,29.58,0,0,0-.25,5.58c.76,6.17,4.79,11.24,9.94,12.83l13.89,29.58,4.24,75.69a2.22,2.22,0,0,0,.26.91l1.61,2.77.07.08M328.8,5.57a8.44,8.44,0,0,1,1,0c4.65.5,8.52,4.9,9.2,10.46a13,13,0,0,1-1.92,8.68,8.81,8.81,0,0,1-6.27,4.09,5.12,5.12,0,0,1-.78.06,7.38,7.38,0,0,1-1.05-.05c-4.66-.48-8.53-4.88-9.21-10.44a12.92,12.92,0,0,1,1.91-8.69A8.9,8.9,0,0,1,328,5.63c.27,0,.55,0,.82-.06" transform="translate(0 0)"/><polygon class="cls-4" points="344.94 64.74 344.93 63.92 344.66 63.68 344.11 63.18 343.71 63.63 344.27 64.13 344.94 64.74"/><path class="cls-2" d="M466.61,116.82h-5.89v2.31h5.89a1.16,1.16,0,0,0,0-2.31Z" transform="translate(0 0)"/><path class="cls-2" d="M466.61,108.4h-5.89v2.31h5.89a1.16,1.16,0,0,0,0-2.31Z" transform="translate(0 0)"/><path class="cls-2" d="M466.61,121h-5.89v2.31h5.89a1.16,1.16,0,0,0,0-2.31Z" transform="translate(0 0)"/><path class="cls-2" d="M466.61,112.61h-5.89v2.31h5.89a1.16,1.16,0,0,0,0-2.31Z" transform="translate(0 0)"/><path class="cls-2" d="M466.61,136a1.16,1.16,0,0,0,0-2.31h-5.89v.28a3.51,3.51,0,0,1-.6,2Z" transform="translate(0 0)"/><path class="cls-2" d="M466.61,129.45h-5.89v2.31h5.89a1.16,1.16,0,0,0,0-2.31Z" transform="translate(0 0)"/><path class="cls-2" d="M466.61,125.24h-5.89v2.31h5.89a1.16,1.16,0,0,0,0-2.31Z" transform="translate(0 0)"/><path class="cls-2" d="M466.61,104.19h-5.89v2.31h5.89a1.16,1.16,0,0,0,0-2.31Z" transform="translate(0 0)"/><path class="cls-2" d="M466.61,78.93H460.4a3.72,3.72,0,0,1,.32,1.55v.76h5.89a1.16,1.16,0,0,0,0-2.31Z" transform="translate(0 0)"/><path class="cls-2" d="M456.2,139.19a3.22,3.22,0,0,1,1.55-1H457V136h4.35a3.86,3.86,0,0,1-.52-2v-.27H457v-1.91h3.83v-2.3H457v-1.91h3.83v-2.31H457v-1.9h3.83V121H457v-1.9h3.83v-2.31H457v-1.9h3.83V112.6H457v-1.9h3.83v-2.31H457v-1.9h3.83v-2.31H457v-1.9h3.83V100H457v-1.9h3.83V95.76H457v-1.9h3.83V91.55H457v-1.9h3.83V87.34H457v-1.9h3.83V83.13H457v-1.9h3.83v-.76a4.29,4.29,0,0,1,.27-1.55H457V77h6.34a3.07,3.07,0,0,1,1.28,0s-.44-2.7-2.5-2.33c-2.57.46-5.1,1.19-7.64,1.8a1.45,1.45,0,0,1-.29,0,3.44,3.44,0,0,1-2,.59,2.42,2.42,0,0,0-1.06.29,7.1,7.1,0,0,0-1.26.85A21.06,21.06,0,0,0,447,81.33a2.82,2.82,0,0,1-1.86,1V134.1a3.2,3.2,0,0,1,2.44,1.71c1.21,2.62,5.29,3,7.85,3.24A3.73,3.73,0,0,1,456.2,139.19Z" transform="translate(0 0)"/><path class="cls-2" d="M466.61,100h-5.89v2.31h5.89a1.16,1.16,0,0,0,0-2.31Z" transform="translate(0 0)"/><path class="cls-2" d="M466.61,83.14h-5.89v2.31h5.89a1.16,1.16,0,0,0,0-2.31Z" transform="translate(0 0)"/><path class="cls-2" d="M466.61,87.35h-5.89v2.31h5.89a1.16,1.16,0,0,0,0-2.31Z" transform="translate(0 0)"/><path class="cls-2" d="M466.61,95.77h-5.89v2.31h5.89a1.16,1.16,0,0,0,0-2.31Z" transform="translate(0 0)"/><path class="cls-2" d="M466.61,91.56h-5.89v2.31h5.89a1.16,1.16,0,0,0,0-2.31Z" transform="translate(0 0)"/><text class="cls-6" transform="translate(290.24 192)">Salon</text></g></g></svg>