<svg xmlns="http://www.w3.org/2000/svg" viewBox="0 0 94.91 127.33"><defs><style>.cls-1{fill:#fb8807;}</style></defs><g id="Layer_2" data-name="Layer 2"><g id="Layer_1-2" data-name="Layer 1"><g id="Layer_2-2" data-name="Layer 2"><g id="Layer_1-2-2" data-name="Layer 1-2"><path class="cls-1" d="M84.56,47.65a4.91,4.91,0,0,1-.08,1.08,9.4,9.4,0,0,0,2.38,8.1c6,7,3.47,16.48-5.1,20a3.38,3.38,0,0,0-2.43,3.56A29,29,0,0,1,76.68,91c-1,2.19-2.14,4.28-4.53,5.4-.7.33-.23,1.59-1,2.21-1.34,1.12-2.49,2.44-3.94,3.44-4.36,3-4.35,3-3,8a60.16,60.16,0,0,0,2,6.18c1.65,4.16,4.85,6,9.13,6.2A73.79,73.79,0,0,1,90,124.27c1.45.37,2.85,1,4.26,1.47.51.19.84.56.56,1.12a.78.78,0,0,1-1,.33l-.05,0c-6.19-2.64-12.82-2.67-19.35-3.25a10.36,10.36,0,0,1-9.22-6.56,65,65,0,0,1-3.06-9.64c-.33-1.27-.68-1.25-1.64-.59a55.23,55.23,0,0,1-4.92,3,15.4,15.4,0,0,1-15.55.32,40.66,40.66,0,0,1-5.24-3.22c-1.35-1-1.7-.59-2,.83a76.67,76.67,0,0,1-2.46,8.12c-1.87,5.21-5.66,7.6-11,7.85A82,82,0,0,0,7.36,125.3a30.39,30.39,0,0,0-5.55,1.6c-.58.23-1.33.83-1.72,0s.59-1.17,1.21-1.43a34.35,34.35,0,0,1,9.69-2.3c2.94-.32,5.9-.48,8.84-.72,4-.33,7-2,8.61-5.84a93.25,93.25,0,0,0,3.23-10.35c.29-1-.25-1.3-.83-1.73-2.17-1.63-4.2-3.44-6.24-5.23-5.71-5-8.45-11.49-9-18.94a3.46,3.46,0,0,0-2.44-3.54C3.88,73,2,62.65,9.16,55.38a4.32,4.32,0,0,0,1.39-3.79c-.52-5.75-.36-11.45,1.53-17A37.1,37.1,0,0,1,28.83,14a2.81,2.81,0,0,0,1.6-2A14.69,14.69,0,0,1,44.11.11a43.79,43.79,0,0,1,7.42.1A14.55,14.55,0,0,1,64.4,11.69a3.33,3.33,0,0,0,1.85,2.42C78.19,21.1,85.38,34.31,84.56,47.65ZM47.45,10.7c-14.56-.55-29.54,9.56-34.22,25.41-1.59,5.38-1.55,10.84-1,16.33a3.41,3.41,0,0,1-1.32,3.43,12,12,0,0,0-3.58,4.94c-2.62,6.37.22,12.36,7.27,14.92,1.86.67,2.39,1.6,2.48,3.47.38,7.39,2.88,13.85,8.53,18.93A80.78,80.78,0,0,0,40.46,109a13.67,13.67,0,0,0,14,0,69,69,0,0,0,15.7-11.84c.63-.64,1.07-1.63,2.34-1.28.42.11.79-.44.55-.88-.38-.71,0-1.13.38-1.62a25.81,25.81,0,0,0,4.41-14.13,3.33,3.33,0,0,1,2.65-3.56c5.73-2,8.47-6.22,7.91-11.71a12.49,12.49,0,0,0-4.62-8.33A2.77,2.77,0,0,1,82.65,53c.18-2.1.3-4.22.36-6.33C83.55,26,65.92,10.08,47.45,10.7ZM63,12.32c-1.28-5-4-8.39-8.56-9.83a24.09,24.09,0,0,0-14.07,0c-3.5,1-7.89,5.09-8.14,9.72C42.34,7.92,52.47,7.9,63,12.32Z" transform="translate(0 0)"/><path class="cls-1" d="M15.85,63.65c.59-7.23,2.32-14,7.1-19.76a19.53,19.53,0,0,1,8.17-5.83A77.89,77.89,0,0,0,56.21,22.87c.47-.42,1-1.19,1.63-.42s-.19,1.2-.66,1.63C50.46,30.2,43,35.32,34.44,38.3c-10.68,3.7-15,11.76-16.69,22.05-.26,1.6-.29,3.24-.4,4.86-.05.61,0,1.38-.79,1.39-1,0-.78-.88-.79-1.51A14.29,14.29,0,0,1,15.85,63.65Z" transform="translate(0 0)"/><path class="cls-1" d="M79.44,62.32c0,.62.12,1.21-.51,1.3s-.9-.45-1-1c-2.68-13.54-11.8-21.51-23.58-27.18-.22-.1-.44-.2-.66-.28-.54-.2-1.1-.48-.87-1.14.29-.83,1-.5,1.53-.28a47.68,47.68,0,0,1,9.15,5.11c7.75,5.53,13.54,12.49,15.68,22C79.28,61.38,79.36,61.92,79.44,62.32Z" transform="translate(0 0)"/><path class="cls-1" d="M47.16,95.6a16.66,16.66,0,0,1-7.43-2c-.49-.25-1-.54-.68-1.23s.89-.4,1.39-.14a14.58,14.58,0,0,0,13.87,0c.46-.23,1-.63,1.42,0s-.19,1.08-.75,1.36A17.21,17.21,0,0,1,47.16,95.6Z" transform="translate(0 0)"/><path class="cls-1" d="M35.2,65.55a15.06,15.06,0,0,1-9-2.56c-.54-.37-1.28-.78-.71-1.54s1.07-.11,1.56.22A14.23,14.23,0,0,0,38.8,63.52c.61-.14,1.43-.6,1.72.28.36,1.1-.74,1-1.35,1.22A13.67,13.67,0,0,1,35.2,65.55Z" transform="translate(0 0)"/><path class="cls-1" d="M59.57,65.56A14.18,14.18,0,0,1,55.68,65c-.62-.15-1.72-.12-1.42-1.19.25-.89,1.12-.46,1.72-.32a15.79,15.79,0,0,0,7.17.19,13.79,13.79,0,0,0,4.47-1.89c.54-.33,1.23-1.24,1.8-.23s-.47,1.23-1,1.6A15.39,15.39,0,0,1,59.57,65.56Z" transform="translate(0 0)"/><path class="cls-1" d="M64.43,53.54a19.08,19.08,0,0,0-5,.42c-1.4.35-2.82.69-3.72,2-.31.44-.72.73-1.21.35s-.29-.86,0-1.3a4,4,0,0,1,1.88-1.63c3.46-1.58,7.12-1.6,10.81-1.37.5,0,1,.21.92.86s-.57.68-1.09.67Z" transform="translate(0 0)"/><path class="cls-1" d="M30.49,53.53H27.78c-.44,0-.87-.09-.94-.63a.7.7,0,0,1,.55-.83.5.5,0,0,1,.17,0c4.05-.25,8.09-.38,11.76,1.79a2.84,2.84,0,0,1,1.34,1.64.71.71,0,0,1-.37.91.62.62,0,0,1-.82-.15c-2.09-2.71-5.18-2.44-8.08-2.71Z" transform="translate(0 0)"/><path class="cls-1" d="M47.27,82.91A6.23,6.23,0,0,1,44,81.77c-.44-.3-.72-.7-.4-1.22a.7.7,0,0,1,1-.25.45.45,0,0,1,.14.1,4.14,4.14,0,0,0,5.2-.05.7.7,0,0,1,1,.12l0,0a.76.76,0,0,1-.12,1.07l-.07,0A5.85,5.85,0,0,1,47.27,82.91Z" transform="translate(0 0)"/><path class="cls-1" d="M25.55,74.74a1.13,1.13,0,0,1-1.18-1.07v-.14a1.19,1.19,0,0,1,2.37.08,1.13,1.13,0,0,1-1.13,1.13Z" transform="translate(0 0)"/><path class="cls-1" d="M70.54,73.63c-.17.75-.61,1.2-1.37,1.1a1.06,1.06,0,0,1-1-1.12.49.49,0,0,1,0-.12,1.1,1.1,0,0,1,1.13-1.08l.22,0C70.26,72.49,70.45,73,70.54,73.63Z" transform="translate(0 0)"/><path class="cls-1" d="M62.74,74.61A1.2,1.2,0,0,1,62.52,77a1.07,1.07,0,0,1-1-1.12.88.88,0,0,1,0-.16,1.09,1.09,0,0,1,1.06-1.12Z" transform="translate(0 0)"/><path class="cls-1" d="M33,86.11a1.23,1.23,0,0,1-1.26-1.22v0A1.18,1.18,0,0,1,33.15,84a1.16,1.16,0,0,1,.84.75A1.22,1.22,0,0,1,33,86.11Z" transform="translate(0 0)"/><path class="cls-1" d="M60.86,85a1.13,1.13,0,0,1,1-1.27h0a1,1,0,0,1,1.22.72,1.33,1.33,0,0,1,0,.28,1.08,1.08,0,0,1-.78,1.32,1.05,1.05,0,0,1-.31,0C61.35,86.12,61,85.64,60.86,85Z" transform="translate(0 0)"/><path class="cls-1" d="M45.74,103.14c.82.08,1.25.49,1.22,1.18a1.06,1.06,0,0,1-1,1.11h-.14a1.09,1.09,0,0,1-1.21-.94,1,1,0,0,1,0-.3A1.1,1.1,0,0,1,45.74,103.14Z" transform="translate(0 0)"/><path class="cls-1" d="M33.36,75.75a1.1,1.1,0,0,1-1,1.24h-.14a1.07,1.07,0,0,1-1.19-.93,1.22,1.22,0,0,1,0-.33A1,1,0,0,1,32,74.66a1,1,0,0,1,.25,0,1.09,1.09,0,0,1,1.12,1.06Z" transform="translate(0 0)"/><path class="cls-1" d="M39.17,97.83A1,1,0,0,1,38.36,99a.82.82,0,0,1-.27,0,1,1,0,0,1-1.18-.78.78.78,0,0,1,0-.22,1.14,1.14,0,0,1,2.28-.15Z" transform="translate(0 0)"/><path class="cls-1" d="M56.92,96.68a1.17,1.17,0,1,1-1.2,1.15s0-.06,0-.09a1.08,1.08,0,0,1,1.09-1.06Z" transform="translate(0 0)"/></g></g></g></g></svg>