<svg xmlns="http://www.w3.org/2000/svg" viewBox="0 0 109.97 113.67"><defs><style>.cls-1{fill:#9f340a;}</style></defs><g id="Layer_2" data-name="Layer 2"><g id="Layer_1-2" data-name="Layer 1"><path class="cls-1" d="M23.07,60c.64-1.63,1.18-3.28,2.8-4.22.51-.31.1-.87,0-1.31a45.81,45.81,0,0,1,.22-21.62C28,26,32,20.75,38.48,17.66A1.43,1.43,0,0,0,39.4,16a20.71,20.71,0,0,1,.19-5.83A11.09,11.09,0,0,1,48.24.88,26.36,26.36,0,0,1,61.09.72c6.36,1.47,9.77,5.82,9.52,12.82-.1,2.75.64,4,3,5.36,6.9,3.91,10,10.44,11.13,18a47,47,0,0,1-.69,17.6c-.18.78-.12,1.22.59,1.67C86,57,86.35,58.52,86.84,60c.57-.18.6-.61.73-1l3.72-10.41c.1-.3.2-.6.33-.89.27-.61.71-.92,1.38-.64a.94.94,0,0,1,.55,1.31Q91.35,54.66,89.08,61c-.14.4-.57.59-.93.83a13.94,13.94,0,0,0-6.24,10.34,21.68,21.68,0,0,0-.22,2.68,5.73,5.73,0,0,1-2,4.28,57,57,0,0,0-7.84,8.45c-1,1.46-1.85,3-.77,4.83.86,1.43,1.32,1.53,2.45.36a175.4,175.4,0,0,1,18.33-16l.36-.31c.52-.45,1.09-.75,1.66-.13s.28,1.28-.31,1.76c-2,1.66-4.06,3.36-6.16,5-4.69,3.55-8.76,7.76-13,11.82-1,.93-1.87,1.59-3.17.71a.7.7,0,0,0-.86,0c-3.86,2.28-7.77,4.48-10.78,7.92a2.69,2.69,0,0,0-.3.37c-.36.62-1,1.29-.45,2s1.25,0,1.76-.32c9.45-4.89,18.88-9.83,28.33-14.72a6.33,6.33,0,0,0,2.69-2.56A50.48,50.48,0,0,0,96,78.63a69.18,69.18,0,0,1,10.74-19.92c.41-.55.75-1.15,1.15-1.7s.86-1,1.58-.57.59,1.16.16,1.79c-.82,1.23-1.6,2.48-2.49,3.65a56.93,56.93,0,0,0-8.79,16.51,67.43,67.43,0,0,1-4.45,10.12,9.82,9.82,0,0,1-4.34,4.4c-6.73,3.39-13.37,7-20.08,10.37-1.11.57-1.38,1.13-1,2.32.71,2.21,1.33,4.45,3,6.2a1,1,0,0,1,.09,1.55c-.64.6-1.28.27-1.79-.28a15,15,0,0,1-3.07-6.16c-.56-1.83-.54-1.83-2.25-1l-3.66,1.88c-2.08,1.07-4.05.16-4.18-2.17-.09-1.74-1.18-1-1.94-1.14-.95-.19-1.21.17-1.28,1.16-.16,2.24-2.07,3.22-4,2.21-1.55-.79-3.1-1.58-4.63-2.41-.68-.37-1-.28-1.16.53a20.35,20.35,0,0,1-1.79,4.89A8.38,8.38,0,0,1,40,113.3a1.06,1.06,0,0,1-1.56,0,1,1,0,0,1,.08-1.54c1.8-1.8,2.36-4.18,3.11-6.48.32-1,0-1.46-.9-1.94-6.84-3.51-13.63-7.13-20.47-10.63a8.89,8.89,0,0,1-3.79-3.67,67,67,0,0,1-4.88-11A54.73,54.73,0,0,0,3.43,62.7c-1-1.26-1.78-2.61-2.67-3.92-.5-.74-1.3-1.57-.24-2.3s1.44.41,1.92,1.05A86.22,86.22,0,0,1,14.86,80.64c3.24,8.84,3.46,8.76,11.78,13.1q11.42,6,22.86,11.87c.47.24,1,1,1.63.29s0-1.31-.33-1.87a15.47,15.47,0,0,0-3.59-3.54,63.42,63.42,0,0,0-7.13-4.68,1.45,1.45,0,0,0-1.72-.09,1.81,1.81,0,0,1-2.4-.5,186.06,186.06,0,0,0-19.2-16.94l-.37-.3a1.06,1.06,0,0,1-.3-1.64c.49-.64,1.09-.41,1.65,0,2.55,2.06,5.08,4.12,7.65,6.14A146.05,146.05,0,0,1,36.65,92.94c1,.94,1.47.64,2.07-.22a3.52,3.52,0,0,0,.15-4,22.37,22.37,0,0,0-3.35-4.39c-1.71-1.79-3.49-3.52-5.27-5.25a6,6,0,0,1-2-4.32c-.16-5.46-1.87-10.13-6.8-13.13a2.21,2.21,0,0,1-.83-1.31q-2-5.73-4.06-11.47c-.26-.74-.54-1.49.45-1.83s1.27.41,1.53,1.14c1.2,3.43,2.4,6.86,3.63,10.28C22.38,58.94,22.4,59.57,23.07,60Zm60.12-2.16c-.55,1.46-1.17,2.85-1.56,4.29-.2.72,0,1.57-1.11,1.53s-.89-.92-1-1.64a50.67,50.67,0,0,0-5.34-17.09A8.38,8.38,0,0,0,68,40.46C60.1,39,52.2,39.24,44.23,40c-5.29.51-8.29,3.38-10,8.06l-.16.45a53.1,53.1,0,0,0-3.61,14c-.07.65-.28,1.12-1,1.13a.9.9,0,0,1-1-1c0-1.55-1-2.76-1.35-4.18-.09-.34-.15-.78-.71-.42-.92.58-1.52,3.24-.83,4a17.63,17.63,0,0,1,4.8,12.36,4,4,0,0,0,1.27,3c1.44,1.38,2.88,2.78,4.28,4.21a31.72,31.72,0,0,1,4.73,5.91,5.61,5.61,0,0,1,.56,5c-.38,1-.25,1.4.68,1.93a42.73,42.73,0,0,1,9.78,7.18c1.09,1.13,5.47,1.31,6.58.16a47.17,47.17,0,0,1,10.42-7.63c.38-.22.72-.42.46-1-1.35-2.83-.23-5.19,1.47-7.44A59.64,59.64,0,0,1,78,77.78a4.68,4.68,0,0,0,1.66-3.58,17.75,17.75,0,0,1,4.19-11.49C85.23,61.11,85,59.49,83.19,57.82ZM81,57.25a41.45,41.45,0,0,0,1-23.5C79.82,25.63,74.67,20.32,66.6,18a41.83,41.83,0,0,0-23.42,0c-7.92,2.3-13,7.57-15.11,15.56a42.07,42.07,0,0,0,.27,21.88c.16.6.14,1.31.81,1.82a53.49,53.49,0,0,1,4.66-13.2,10.54,10.54,0,0,1,7.69-5.71,89.72,89.72,0,0,1,14.17-1.19c4.48-.11,6.64-2,7.17-6.15.1-.77.34-1.38,1.22-1.3s.87.77.85,1.43A8.57,8.57,0,0,1,62,37.48c1.26.16,2.28.36,3.31.4,6.17.29,10.17,3.41,12.34,9.16C78.89,50.38,80,53.77,81,57.25Zm-26.35-55c-.48,0-1.33-.05-2.17,0-6.44.43-10.14,3.48-11,9.08-.16,1.14,0,2.32-.13,3.47-.1,1.31.31,1.57,1.61,1.21a46.1,46.1,0,0,1,23-.32c2.71.63,2.71.67,2.67-2.14-.09-6.17-2.8-9.69-8.44-10.92A18.93,18.93,0,0,0,54.63,2.22Z"/><path class="cls-1" d="M51.34,58.34c.06.9-.69,1.29-1.8.87a27.49,27.49,0,0,0-8.07-2.07,9,9,0,0,0-5.5,1c-.69.42-1.3.52-1.73-.28s.09-1.21.67-1.55A11.1,11.1,0,0,1,41.47,55a28.16,28.16,0,0,1,8.83,2.25C51.09,57.6,51.3,57.86,51.34,58.34Z"/><path class="cls-1" d="M70.24,55a10.32,10.32,0,0,1,4.66,1.22c.62.35,1.25.81.85,1.61s-1.13.69-1.87.26c-2.45-1.39-5.07-1.09-7.69-.64a27.36,27.36,0,0,0-5.71,1.77c-.69.28-1.38.47-1.74-.38s.21-1.24.9-1.57A29.8,29.8,0,0,1,70.24,55Z"/><path class="cls-1" d="M51.79,85.06c1.92.84,4.43.33,7,0a6.73,6.73,0,0,1,4,.89c.63.33,1,.8.71,1.53s-1,.66-1.63.34a6.41,6.41,0,0,0-5.93,0,2,2,0,0,1-1.8,0,6.36,6.36,0,0,0-5.79,0c-.62.32-1.25.44-1.64-.29s.11-1.27.77-1.6A8.25,8.25,0,0,1,51.79,85.06Z"/><path class="cls-1" d="M33.38,67.35a1,1,0,0,1,1.07.79,9.22,9.22,0,0,1,.5,2.3c-.17,2.92,1.31,4.91,3.43,6.63a18.31,18.31,0,0,1,2.07,2.15,1,1,0,0,1-.11,1.52.94.94,0,0,1-1.4-.11c-1.77-1.72-3.51-3.47-5.26-5.21a1.65,1.65,0,0,1-.43-1.15,27.2,27.2,0,0,0-.76-5.45C32.29,68.08,32.52,67.46,33.38,67.35Z"/><path class="cls-1" d="M77.51,68.7a29.44,29.44,0,0,0-.83,5.93,1.68,1.68,0,0,1-.55.92c-1.63,1.65-3.27,3.28-4.92,4.92-.49.48-1,.8-1.64.21s-.39-1.15.1-1.65c1.18-1.21,2.3-2.49,3.58-3.58A4.19,4.19,0,0,0,74.84,72a15.12,15.12,0,0,1,.68-3.88,1,1,0,0,1,1.19-.79C77.38,67.46,77.51,68,77.51,68.7Z"/><path class="cls-1" d="M43.8,67.47A9.18,9.18,0,0,1,36.56,64a1,1,0,0,1,0-1.54,1.07,1.07,0,0,1,1.56.13l.67.67c2.76,2.62,5.39,2.85,8.54.74.31-.2.6-.44.92-.62a1,1,0,0,1,1.5.31,1,1,0,0,1-.31,1.39A9.49,9.49,0,0,1,43.8,67.47Z"/><path class="cls-1" d="M65.9,67.48c-1.49,0-3.34-.9-5.06-2.18-.59-.44-1.08-1-.49-1.7s1.19-.35,1.79,0a18.58,18.58,0,0,0,1.74,1.08A5.46,5.46,0,0,0,70,64.27a21.17,21.17,0,0,0,1.88-1.67,1.07,1.07,0,0,1,1.55-.14,1,1,0,0,1,0,1.54A9.31,9.31,0,0,1,65.9,67.48Z"/><path class="cls-1" d="M55,93.68a12.74,12.74,0,0,1-5.13-1.35c-.67-.34-1.2-.79-.77-1.6s1-.67,1.63-.32a8.72,8.72,0,0,0,8.62,0c.64-.34,1.28-.42,1.63.29s-.1,1.29-.78,1.64A12.6,12.6,0,0,1,55,93.68Z"/><path class="cls-1" d="M55.36,79.54A6.25,6.25,0,0,1,52,78.82a1.06,1.06,0,0,1-.52-1.46.92.92,0,0,1,1.34-.43,4.47,4.47,0,0,0,4.23,0,.93.93,0,0,1,1.35.41,1,1,0,0,1-.51,1.47A5.46,5.46,0,0,1,55.36,79.54Z"/></g></g></svg>