<svg xmlns="http://www.w3.org/2000/svg" viewBox="0 0 115.39 117.9"><defs><style>.cls-1{fill:#fb8807;}</style></defs><g id="Layer_2" data-name="Layer 2"><g id="Layer_1-2" data-name="Layer 1"><g id="Layer_2-2" data-name="Layer 2"><g id="Layer_1-2-2" data-name="Layer 1-2"><path class="cls-1" d="M71,45.72A71.06,71.06,0,0,1,81.12,62.19a12.35,12.35,0,0,0-2.2-6.2c-2-3-4.17-5.49-6.2-8.62l-.44-.66c1.87-.66,2.2-1,2-2.36-.38,1.37-1.15,2-2.08,1.76a3.17,3.17,0,0,1-2-3,5.36,5.36,0,0,1,.6-1.65,3,3,0,0,0,0-3.46c-7.74-10.32-15-20.25-23.44-29.42a.66.66,0,0,0-.44,0l1.92,3.35c5,8.34,11,16.08,16.47,24l3,4.17c.83,1.15,1.38,1.1,2,0l.44-1.43a1.54,1.54,0,0,1-.27,2h-.33c-.33,0-.77,1.54-1.49,1.43s-1-1-1.31-1.7a7.93,7.93,0,0,0-6.48-4.23,40.76,40.76,0,0,1-31-24.31,23.3,23.3,0,0,1-2-11,1.69,1.69,0,0,0,0-.55V0a22.8,22.8,0,0,0,.82,7A39.47,39.47,0,0,0,41.21,25.58a42.72,42.72,0,0,0,22,10h.44L60.37,30.9c0-.33-.66,0-1-.33A31.83,31.83,0,0,1,35.23,15.09v-.54A34.12,34.12,0,0,0,59.82,30.08C53.24,20.91,47.58,11.47,42,2h0l3.89,4.39c6.48,7.52,12.9,15.15,18.83,23.21a1.48,1.48,0,0,0,1.54.66,39,39,0,0,0,8.34-1.7,5.39,5.39,0,0,1-2.08.88l-2.31.66a28.6,28.6,0,0,0-3.73.66c-1.26.16-.72,0-.33.71,1.15,1.43,2.25,2.91,3.4,4.39a1,1,0,0,0,.83.39,19.17,19.17,0,0,0,11.91-4,11.42,11.42,0,0,0,2.58-15.53,8.75,8.75,0,0,0-3.68-2.91A3.91,3.91,0,0,1,83.86,15a11,11,0,0,1,3.08,12.68A15.2,15.2,0,0,1,74.7,37a29.43,29.43,0,0,0-3.46.5l3.24,4.28c2,2.63,2,2.58,5.49,2.36a49.56,49.56,0,0,0,7.84-1.32,34.18,34.18,0,0,1-11,2c1,1.32,1.86,2.58,2.85,3.73a3.85,3.85,0,0,1,.88,3.68A13.22,13.22,0,0,0,81,59.06l1.86,5.49c.33-.5,0-.82,0-1.26.5,1.15.94,2.3,1.43,3.4a41.71,41.71,0,0,0,4.94,8.4,15,15,0,0,0,4.23,3.4L98,81.34a2.59,2.59,0,0,1,1.15,1.76c.28,1.81.83,3.57,1.1,5.49a7.09,7.09,0,0,1-2.85,7.25,3.16,3.16,0,0,0-1.43,2.79,17.21,17.21,0,0,0,1.43,6.48c0,.44.43.93-.33,1.15s-.88,0-.94-.82a20.55,20.55,0,0,0-1.37-6c-.71-1.59-1.1-2.14-3.07-2A8.29,8.29,0,0,1,83.86,90a13.37,13.37,0,0,1,.77-6.42c.55-1.65,1.1-3.24,1.54-4.89a9.94,9.94,0,0,0-1.37-7.57,6.42,6.42,0,0,0-2.14-2,1.77,1.77,0,0,1-1-1.59,21.6,21.6,0,0,0-4.39-12.4L71.35,46.6a.6.6,0,0,1-.44-.73A.88.88,0,0,1,71,45.72ZM85.67,88a7.7,7.7,0,0,0,1.43,5,6.15,6.15,0,0,0,7.74,2,6,6,0,0,0,4-7,9.43,9.43,0,0,0-6.47-7.35,3.72,3.72,0,0,0-4.61,1.37A9.74,9.74,0,0,0,85.67,88Z"/><path class="cls-1" d="M54.06,102.75a27,27,0,0,0,7.74-7.63,29.86,29.86,0,0,0,1.26-32.93A56,56,0,0,0,48,45.34l-5.49-4.61a1.74,1.74,0,0,1-.72-1l4.61,3.62A72.9,72.9,0,0,1,59.71,55.44,35.55,35.55,0,0,1,68,72.51a30.68,30.68,0,0,1-14.87,32,4.56,4.56,0,0,0-1.27,1,34.58,34.58,0,0,1-13.44,10.54,27.55,27.55,0,0,1-9.67,1.81,27.75,27.75,0,0,0,12.68-9.66,18.26,18.26,0,0,1-6.31-.88l4.06.44a3.64,3.64,0,0,0,4.07-2.3,30.18,30.18,0,0,0,1.86-23.39v-.6h-.27a9.72,9.72,0,0,1-9.61,8.12A6.78,6.78,0,0,1,29,86.39a13.55,13.55,0,0,0,1.7,1.43,8.39,8.39,0,0,0,11-1.81A11.48,11.48,0,0,0,44,80.52a4.31,4.31,0,0,0-1.1-3.46A30.41,30.41,0,0,0,30.51,65a18.55,18.55,0,0,0-8.78-1.64,63.31,63.31,0,0,1-13.61-1,8.78,8.78,0,0,1-3-1.1,3,3,0,0,1-1.32-3.73,18,18,0,0,0,.77-3.9,5.84,5.84,0,0,0-1.1-4.06,11.77,11.77,0,0,1-1.37-2.25,2.69,2.69,0,0,1,1.14-3.63l.23-.1c.66-.33.71-.55,0-1a13.05,13.05,0,0,1-1.76-2.36A2.42,2.42,0,0,1,2,36.89H2L3.89,35a2.19,2.19,0,0,0,.25-3.09,1.48,1.48,0,0,0-.25-.25A18.68,18.68,0,0,0,2.3,30.13,9.43,9.43,0,0,1,.87,28.6,3.14,3.14,0,0,1,1,24.17a3.31,3.31,0,0,1,1-.62A31,31,0,0,1,5.1,22.17a13,13,0,0,0,7.35-7.79c.88-2.19,1.65-4.45,2.47-6.7A20.23,20.23,0,0,1,17,3.46h0a42.88,42.88,0,0,0-3.62,9.27A14.77,14.77,0,0,1,4.33,23.05a9.6,9.6,0,0,0-2.69,1.59,2,2,0,0,0-.71,2.79,1.88,1.88,0,0,0,.16.23,6.92,6.92,0,0,0,1.65,1.92L4.33,31a3.13,3.13,0,0,1,.55,4.39,3.18,3.18,0,0,1-.55.55L2.85,37.43c-1,1-1,1.65,0,2.75S4.27,41.88,5,42.76s.49,1.37-.72,1.75a1.81,1.81,0,0,0-1.41,2.14,1.79,1.79,0,0,0,.32.72,4.84,4.84,0,0,0,.55.93,9,9,0,0,1,1.37,9c-.66,2.41,0,3.4,2.3,4a45.21,45.21,0,0,0,9.83,1.15,64.48,64.48,0,0,1,9.22,0A20.31,20.31,0,0,1,37,67.84a31,31,0,0,1,7.08,38.42l-.22,1a17.79,17.79,0,0,0,4-1A7.8,7.8,0,0,0,52,103.08a43.86,43.86,0,0,0,8.61-27.44,35.33,35.33,0,0,0-11.8-25.09c-3.18-3-6.69-5.49-9.82-8.78A67.56,67.56,0,0,1,24.2,22.17,29.52,29.52,0,0,1,21.18,6,10.23,10.23,0,0,1,22,3.18c0,1.05-.33,2.09-.39,3.13A31.21,31.21,0,0,0,26.34,25,74.11,74.11,0,0,0,39.68,41.17c3.62,3.51,7.79,6.42,11.3,10A36.57,36.57,0,0,1,62,79.7,47,47,0,0,1,54.06,102.75Zm-16.85,12a26.46,26.46,0,0,0,11.58-8.29,26,26,0,0,1-4.89,1.38,1.19,1.19,0,0,0-.93.6A27.45,27.45,0,0,1,37.21,114.77Z"/><path class="cls-1" d="M89.85,60.16a14.91,14.91,0,0,1-2.91-1.59l-4.17-2.09c-.94-.49-1.1,0-1.16.77a13.17,13.17,0,0,0,.72,4.12c0,.43.38.82,0,1.42a15.26,15.26,0,0,1-.77-11.85c1.37,1.64,2.74,3.13,4.17,4.55a64,64,0,0,0,9.55,7.25,9.68,9.68,0,0,0,7.19.82,14.34,14.34,0,0,1,8,1.26,7.58,7.58,0,0,1,4.78,8.51,8.29,8.29,0,0,1-7.74,6.86,9,9,0,0,1-4.39-.66,1.38,1.38,0,0,0-1.9.4,1.26,1.26,0,0,0-.13.26,3.62,3.62,0,0,1-1.32,1.26.76.76,0,0,1-1.06-.21l0-.06a.81.81,0,0,1,.33-.82c1.32-1.16,1.37-1.76.5-3.24a24.26,24.26,0,0,1-3.57-9.22,9.43,9.43,0,0,0-3.51-5.49c-.33-.33-.77-.5-.94-1A10.1,10.1,0,0,1,97,68.12a5.86,5.86,0,0,0-2.3-4.83c-2-1.6-4.12-3.19-6.1-4.83s-2.8-1.65-3.67-3.46a3.34,3.34,0,0,0,1.59,2.58A23.89,23.89,0,0,1,89.85,60.16ZM106.7,78.33a6.31,6.31,0,0,0,6.2-4.07,5.49,5.49,0,0,0-1.65-6.53,11,11,0,0,0-9-2.41,3.84,3.84,0,0,0-3.56,4.11,4.31,4.31,0,0,0,.1.61,10.36,10.36,0,0,0,3.57,6.58A5.48,5.48,0,0,0,106.7,78.33Z"/><path class="cls-1" d="M60.86,105.44a24.77,24.77,0,0,0,9-11,38.43,38.43,0,0,0,2.53-26.12,35.61,35.61,0,0,0-11-16.47c-5-4.56-10.59-8.29-16-12.41A60.82,60.82,0,0,1,31.61,26c-.39-.55-.71-1.16-1-1.7h0a42.16,42.16,0,0,0,4.11,5.05A100.35,100.35,0,0,0,49.39,40.89,120.69,120.69,0,0,1,64.21,52.53a33.44,33.44,0,0,1,10.32,19,39.33,39.33,0,0,1-1.81,18.17A31,31,0,0,1,65,102.81,15.05,15.05,0,0,1,60.86,105.44Z"/><path class="cls-1" d="M76.12,96.27c.55-.87,1.16-1.75,1.71-2.69a26.16,26.16,0,0,0,2.63-18.49A44.84,44.84,0,0,0,65.53,49.62a1.72,1.72,0,0,1-.77-.93,5.82,5.82,0,0,1,1.59,1.15A43.12,43.12,0,0,1,81,74.1a26.18,26.18,0,0,1-3.62,20.75l-1,1.31Z"/><path class="cls-1" d="M38.42,28.82a76.72,76.72,0,0,0,8.23,6.09A60.22,60.22,0,0,0,68,43.36c.66,0,.66,0,1.15-.55l.33,1.43A54.36,54.36,0,0,1,38.42,28.82Z"/></g></g></g></g></svg>