<svg xmlns="http://www.w3.org/2000/svg" viewBox="0 0 87.62 122.28"><defs><style>.cls-1{fill:#fb8807;}</style></defs><g id="Layer_2" data-name="Layer 2"><g id="Layer_1-2" data-name="Layer 1"><g id="Layer_2-2" data-name="Layer 2"><g id="Layer_1-2-2" data-name="Layer 1-2"><path class="cls-1" d="M71.93,74.19c-1,1.08-1.85,2.07-2.77,3-2.57,2.6-5.14,5.2-7.77,7.8a17,17,0,1,1-24-24c3.3-3.33,6.62-6.64,9.94-10a1.39,1.39,0,0,0,.56-.78,12.33,12.33,0,0,0-3.6,1.16,20.12,20.12,0,0,0-6,4.16L2.67,91.05c-.34.33-.66.68-1,1a.89.89,0,0,1-1.25.09A.67.67,0,0,1,.28,92a.87.87,0,0,1,0-1.24l0,0c.53-.56,1.08-1.1,1.62-1.64q17.48-17.4,34.88-34.83A21.36,21.36,0,0,1,49.32,48a4.63,4.63,0,0,0,2.77-1.77c.48-.49-.07-.62-.34-.77a52.28,52.28,0,0,1-5.2-3.29,16.93,16.93,0,0,1-6.21-7.53,2.94,2.94,0,0,0-.88-1.1L11.5,7c-.16-.15-.32-.3-.47-.46a.93.93,0,0,1-.12-1.31L11,5.16a.9.9,0,0,1,1.27-.1l.1.1c.87.79,1.72,1.6,2.57,2.41,8.42,8,16.85,15.9,25.21,23.91,1.19,1.13,1.48,0,2.13-.47.88-.62.42-1.06-.11-1.62Q29.49,16.1,16.88,2.75L16.12,2c-.48-.52-.89-1.09-.2-1.7S17,.14,17.51.62L29,12.76q7.47,7.92,15,15.83A5.48,5.48,0,0,0,46,30a16.13,16.13,0,0,1,6.16,5,67.42,67.42,0,0,1,5.52,9c.72,1.27,1.47,2.53,2.22,3.79.3.49.55,1,.08,1.5s-1,.28-1.48,0c-1.19-.72-2.4-1.41-3.59-2.13a.85.85,0,0,0-1.2.07l0,0c-5.13,5.18-10.4,10.23-15.42,15.52a15.08,15.08,0,1,0,21.65,21C68,75.71,76,67.62,84.11,59.55a4.68,4.68,0,0,0,.87-6A40.64,40.64,0,0,0,68.8,37.34a4.74,4.74,0,0,0-6,.85c-.87.84-1.72,1.71-2.57,2.57-.46.46-1,.74-1.52.2s-.32-1.06.15-1.53c1-1,2-2,3-2.94a6.45,6.45,0,0,1,7.46-1.06,41.72,41.72,0,0,1,17.6,17.71,6.42,6.42,0,0,1-1.32,7.6q-5,5.1-10.11,10.11A3.68,3.68,0,0,0,74.4,73a21.35,21.35,0,0,1-6.1,12.29q-18.09,18.15-36.22,36.26a4.58,4.58,0,0,1-.67.57.84.84,0,0,1-1.11-.1.88.88,0,0,1-.14-1.2,6.29,6.29,0,0,1,.74-.81q18-18,35.91-35.94A19.78,19.78,0,0,0,72,75.35a4.56,4.56,0,0,0,.14-.64S72,74.6,71.93,74.19ZM56.11,45.45a51.41,51.41,0,0,0-5.71-9.53,14.22,14.22,0,0,0-5.06-4.14c-.31-.14-.59-.37-1-.1-2.26,1.43-2.5,2.37-1,4.56C46.53,40.78,51.45,42.93,56.11,45.45Z"/><path class="cls-1" d="M52.47,73a4.16,4.16,0,0,1-2.14,3.19c-2.48,1.55-5,3-7.45,4.65a1,1,0,0,1-1.41,0,1,1,0,0,1-.23-.39A22.07,22.07,0,0,1,38.69,71a4.69,4.69,0,0,1,4.62-4.74,5.05,5.05,0,0,1,1.23.15,3.35,3.35,0,0,1,2.39,1.93c.29.71.59.87,1.36.75a3.6,3.6,0,0,1,4.15,3A3.86,3.86,0,0,1,52.47,73ZM40.58,71.77A28.34,28.34,0,0,0,42.26,78c.22.63.54.49,1,.21,1.89-1.19,3.8-2.34,5.7-3.52a4.33,4.33,0,0,0,1-.81,1.64,1.64,0,0,0,.22-2.33l-.1-.12a1.89,1.89,0,0,0-2.66,0h0a3.87,3.87,0,0,0-.48.59c-.34.52-.77.82-1.38.47a.91.91,0,0,1-.38-1.24l0-.09a.72.72,0,0,0,.09-.2,2,2,0,0,0-1-2.72,2.09,2.09,0,0,0-1.68,0C41.25,68.76,40.58,69.75,40.58,71.77Z"/><path class="cls-1" d="M64.88,74a27.2,27.2,0,0,1-8.78-2.55,1.07,1.07,0,0,1-.75-1.31,1.11,1.11,0,0,1,.28-.48c1.6-2.37,3.06-4.82,4.52-7.27a4.57,4.57,0,0,1,2.29-2,3.53,3.53,0,0,1,4.85,3.68c-.1.85,0,1.27.83,1.67a3.76,3.76,0,0,1,1.9,4.1,4.72,4.72,0,0,1-3.71,4A10.24,10.24,0,0,1,64.88,74Zm-.21-1.93c2.07,0,3.38-1.07,3.49-2.74a2,2,0,0,0-1.8-2.18,2.21,2.21,0,0,0-.68,0c-.67.15-1.44.77-1.92-.2s.49-1.22,1-1.7A1.87,1.87,0,0,0,65,62.71l-.1-.11c-.74-.76-1.68-.69-2.6.2a4,4,0,0,0-.5.59c-1.27,2-2.52,4.12-3.79,6.17-.26.41-.25.65.23.82A29,29,0,0,0,64.67,72.11Z"/><path class="cls-1" d="M67.08,42.23a3.57,3.57,0,0,1,3.25,2.22.86.86,0,0,0,1,.66l.11,0a3.66,3.66,0,0,1,4,1.88,3.71,3.71,0,0,1-.76,4.25,5.64,5.64,0,0,1-1.18,1c-2.4,1.46-4.84,2.88-7.17,4.47-.87.6-1.39.46-1.85-.49A24.34,24.34,0,0,1,62,47.89a4.87,4.87,0,0,1,4-5.6A4.77,4.77,0,0,1,67.08,42.23Zm-.25,1.92a2.81,2.81,0,0,0-2.9,2.7v.22a21.7,21.7,0,0,0,1.7,7c.14.4.35.5.73.26,2.17-1.35,4.37-2.67,6.52-4.06a1.92,1.92,0,0,0,1-2.06,1.59,1.59,0,0,0-1.34-1.29,2,2,0,0,0-2.07.93c-.39.54-.79,1.07-1.51.7s-.49-1-.27-1.63a2,2,0,0,0-1.07-2.61A2,2,0,0,0,66.83,44.15Z"/><path class="cls-1" d="M15.39,89.69a2,2,0,0,1,1,.45A54,54,0,0,1,32.19,106l.12.19c.39.57.57,1.17-.15,1.6s-1.09,0-1.45-.56a58.11,58.11,0,0,0-4-5.38,53,53,0,0,0-11.14-9.9,6.88,6.88,0,0,1-.88-.65.85.85,0,0,1-.19-1A.93.93,0,0,1,15.39,89.69Z"/><path class="cls-1" d="M27.55,109a1,1,0,0,1-.71.89c-.55.15-.88-.17-1.18-.58-.92-1.28-1.81-2.58-2.79-3.81a41.8,41.8,0,0,0-9.4-8.5c-.12-.08-.24-.17-.37-.24-.57-.35-.92-.83-.52-1.45s1-.5,1.62-.12a47.83,47.83,0,0,1,4.16,3.06A43.64,43.64,0,0,1,27.1,108,2,2,0,0,1,27.55,109Z"/></g></g></g></g></svg>