<svg xmlns="http://www.w3.org/2000/svg" viewBox="0 0 102.46 123.94"><defs><style>.cls-1{fill:#fb8807;}</style></defs><g id="Layer_2" data-name="Layer 2"><g id="Layer_1-2" data-name="Layer 1"><g id="Layer_2-2" data-name="Layer 2"><g id="Layer_1-2-2" data-name="Layer 1-2"><path class="cls-1" d="M42.43,103.56c-.49,1.78-.92,3.49-1.44,5.17s-1.08,3.26-1.67,4.87c-1.75,4.72-5.33,6.84-10.19,7.11a72.88,72.88,0,0,0-13.49,1.6,22.33,22.33,0,0,0-4.07,1.35c-.48.22-1,.48-1.36-.14s.25-1,.77-1.25a27.31,27.31,0,0,1,6.92-2,74.11,74.11,0,0,1,10.62-1c4.74-.13,8.05-2.2,9.69-6.81,1-2.93,1.76-5.94,2.65-8.9.28-.93-.16-1.36-.8-1.84a55.21,55.21,0,0,1-7.4-6.43,37.89,37.89,0,0,1-3-3.56c-.39-.52-1.3-1.24-.41-1.89s1.22.48,1.61,1c4.56,6,10.61,10.25,16.86,14.28,5.73,3.69,11.36,3.69,17.1,0,3.63-2.33,7.08-4.87,10.47-7.54A26.91,26.91,0,0,0,86,76.13c0-1.29.56-1.74,1.68-2.14,9.74-3.5,11.57-13,3.84-19.93a2.59,2.59,0,0,1-.92-2.4c.38-5,.64-10.06-.61-15.07a34.71,34.71,0,0,0-67.83,2.09c-.78,4.24-.47,8.47-.19,12.71a5.25,5.25,0,0,1-2.61,4.21.65.65,0,0,1-.78-.09.62.62,0,0,1-.25-.75.66.66,0,0,1,.17-.29c3.17-2.12,1.71-5.27,1.65-8-.31-13.2,4.93-23.63,15.62-31.23A11.35,11.35,0,0,0,40.53,9.3c1.79-5.22,5.88-8.22,11.39-9a32.07,32.07,0,0,1,8.42,0,14.21,14.21,0,0,1,12.45,11.2,3.36,3.36,0,0,0,1.75,2.3C86.63,21.35,92.8,32.2,92.33,46.55c-.12,3.47.14,6.26,2.62,9.28,5.67,6.9,2.75,15.86-5.77,19.24a2.34,2.34,0,0,0-1.78,2.42c-.5,7.77-3.25,14.51-9.34,19.64-1.89,1.59-3.78,3.17-5.7,4.72-.53.43-.9.79-.68,1.56.9,3.14,1.68,6.32,2.82,9.39,1.63,4.4,4.91,6.29,9.39,6.48a62.77,62.77,0,0,1,15,2,27.25,27.25,0,0,1,3,1.15c.43.19.76.58.44,1.12s-.63.42-1,.24c-5.88-2.54-12.17-2.65-18.4-3.12-4.42-.33-7.71-2.38-9.49-6.59a58.92,58.92,0,0,1-2.86-9.19c-.25-1-.47-1.5-1.61-.68a45,45,0,0,1-5.11,3.19,15,15,0,0,1-15.27-.09C46.52,106.16,44.56,104.87,42.43,103.56ZM41.39,12a37.07,37.07,0,0,1,29.84,0,12.29,12.29,0,0,0-9.17-9.82,26.4,26.4,0,0,0-11.6,0C45.7,3.21,41.8,7.57,41.39,12Z"/><path class="cls-1" d="M4.9,46.17a2.43,2.43,0,0,1,2,.93L27.82,68c.41.41.9.85.88,1.43,0,1.65,1.12,1.77,2.27,1.88A9.24,9.24,0,0,0,36.4,70a3.22,3.22,0,0,1,4.46.82c1.2,1.33,1.27,2.49.22,4.21-.2.33-.59.57-.19,1,.94,1,.4,2-.14,3a19.58,19.58,0,0,1-8.1,8c-.85.45-1.71.81-2.54,0-.59-.54-.89,0-1.31.22A3,3,0,0,1,24.86,87c-1.52-1.32-1.9-2.66-1.06-4.27,1.05-2,1.85-4.07,1.34-6.41-.2-.87-.36-1.69-1.59-1.56-.75.08-1.23-.52-1.72-1L1,53c-1.35-1.35-1.34-2.31,0-3.69.75-.79,1.53-1.55,2.31-2.31A2.16,2.16,0,0,1,4.9,46.17Zm.17,1.45A15.09,15.09,0,0,0,2.71,49.7c-1.24,1-1.22,1.69,0,2.84C8.89,58.65,15,64.85,21.19,71c2.71,2.72,2.69,2.69,5.35-.13.69-.73.8-1.22,0-2Q16.27,58.67,6,48.36A11.33,11.33,0,0,0,5.07,47.62ZM40.29,73.18a2.15,2.15,0,0,0-2.26-2,2.05,2.05,0,0,0-.74.17c-2.91,1.49-5.84,2.31-9,.81-.78-.36-2.6,1.35-2.24,2.1,1.53,3.25.74,6.23-.81,9.2a2.17,2.17,0,0,0,1.64,3A1.52,1.52,0,0,0,28.07,86c.44-.39.12-.71-.13-1a1.82,1.82,0,0,1,0-2.09,19.56,19.56,0,0,1,8.7-8.74,1.87,1.87,0,0,1,2.1,0C40.11,75,40,73.74,40.29,73.18Zm-.43,4.28c-.09-1.09-2.19-2.22-3.1-1.72a18.49,18.49,0,0,0-7.12,7c-.59,1-.27,1.54.44,2.18s1.09,1.21,2.17.59a18.61,18.61,0,0,0,7.26-7.33A6.82,6.82,0,0,0,39.86,77.46Z"/><path class="cls-1" d="M25.54,61.44c.57-6,2-11.64,5.37-16.68A19.86,19.86,0,0,1,40.54,37,75.85,75.85,0,0,0,64.82,22.29c.45-.4.94-1.13,1.56-.45s-.19,1.23-.64,1.65A68.15,68.15,0,0,1,43.07,37.56c-8.3,3-12.76,8.94-14.87,17.1a36.09,36.09,0,0,0-1.12,7c0,.57-.1,1.32-.83,1.28S25.49,62.08,25.54,61.44Z"/><path class="cls-1" d="M87.46,60.73c0,.63,0,1.22-.68,1.23s-.79-.74-.88-1.26a30.23,30.23,0,0,0-6.8-14.27,44.86,44.86,0,0,0-16-11.91c-.21-.09-.43-.17-.63-.27-.51-.23-1.26-.39-1-1.14s1-.49,1.61-.25a47.84,47.84,0,0,1,11.17,6.71c6.58,5.3,11.32,11.8,13,20.24C87.33,60.15,87.4,60.48,87.46,60.73Z"/><path class="cls-1" d="M56.17,93a16,16,0,0,1-7.26-1.84c-.49-.25-1.17-.52-.82-1.25s1-.38,1.48-.12a14,14,0,0,0,13.36,0c.52-.25,1.12-.61,1.48.11s-.31,1-.81,1.25A17,17,0,0,1,56.17,93Z"/><path class="cls-1" d="M68,63.81a15.25,15.25,0,0,1-3.92-.54c-.57-.13-1.45-.21-1.27-1.07s1-.56,1.59-.42a15.56,15.56,0,0,0,6,.42A12.74,12.74,0,0,0,76.13,60c.46-.33,1-.81,1.49-.2S77.43,61,77,61.29A14.7,14.7,0,0,1,68,63.81Z"/><path class="cls-1" d="M44.37,63.81a14.67,14.67,0,0,1-8.65-2.44c-.49-.33-1.29-.68-.83-1.44s1.09-.2,1.6.14A14,14,0,0,0,47.68,61.9c.28-.06.55-.15.83-.21.54-.1,1.11-.12,1.22.55s-.35.77-.83.9A15.82,15.82,0,0,1,44.37,63.81Z"/><path class="cls-1" d="M40.23,50.62a17.15,17.15,0,0,1,6.91,1.1,4.65,4.65,0,0,1,2.47,2,.78.78,0,0,1-.18,1.07.6.6,0,0,1-.84,0,.86.86,0,0,1-.07-.1c-2.1-2.62-5.17-2.36-8-2.64a29.73,29.73,0,0,0-3.27,0c-.49,0-1-.1-1-.68s.42-.77.92-.78C38.17,50.61,39.2,50.62,40.23,50.62Z"/><path class="cls-1" d="M72.92,52.08a20.21,20.21,0,0,0-5.79.66,4.64,4.64,0,0,0-2.86,1.75c-.27.4-.64.72-1.14.33S62.79,54,63,53.59a5,5,0,0,1,2.4-1.88c3.23-1.28,6.62-1.2,10-1.08.5,0,.94.22.89.8s-.53.66-1,.65Z"/><path class="cls-1" d="M56,80.66a5.27,5.27,0,0,1-3.16-1.15c-.33-.24-.62-.56-.36-1a.74.74,0,0,1,1-.36.76.76,0,0,1,.19.12,3.81,3.81,0,0,0,4.9,0,.73.73,0,0,1,1,0,.6.6,0,0,1,.14.21c.26.45,0,.76-.38,1A5.2,5.2,0,0,1,56,80.66Z"/></g></g></g></g></svg>