<svg xmlns="http://www.w3.org/2000/svg" viewBox="0 0 95.29 121.36"><defs><style>.cls-1{fill:#fb8807;}</style></defs><g id="Layer_2" data-name="Layer 2"><g id="Layer_1-2" data-name="Layer 1"><g id="Layer_2-2" data-name="Layer 2"><g id="Layer_1-2-2" data-name="Layer 1-2"><path class="cls-1" d="M95.29,109.56v.74A6.14,6.14,0,0,1,83.12,109V65.38c0-1.23,0-1.07-1.07-1.07h-22a3.44,3.44,0,0,1-2.93-5.12,3.39,3.39,0,0,1,3.15-1.5H82.15c.54,0,.7,0,.65-.64a16.22,16.22,0,0,1,0-1.71c0-.53,0-.48-.43-.48H60.15a3.32,3.32,0,0,1-3.21-2.14A3.2,3.2,0,0,1,58,49a3.48,3.48,0,0,1,2.35-1H82.05c.91,0,.91,0,.91-.9V45.88c0-.32,0-.42-.43-.42H60.09a3.25,3.25,0,0,1-2.77-5.34,3.08,3.08,0,0,1,2.29-1.39H82.05c.91,0,.91,0,.91-.86s.26-1.44,0-1.81-1.18,0-1.82,0H60.2a3.21,3.21,0,0,1-3.43-3,3.49,3.49,0,0,1,0-.56,3.15,3.15,0,0,1,2.89-3H82.1c.86,0,.86,0,.86-.86v-1.6c0-.32,0-.43-.43-.43H60.25a3.31,3.31,0,1,1-1.14-6.52,3.4,3.4,0,0,1,.72-.05H82.1c.86,0,.86,0,.86-.85a11.53,11.53,0,0,1,0-1.44c0-.43,0-.59-.54-.54H60.15a3.24,3.24,0,0,1-3-4.8,3,3,0,0,1,3-1.77H82.31c.49,0,.7,0,.65-.64a8.15,8.15,0,0,1,0-1.71c0-.37,0-.48-.54-.48H60.2a3.21,3.21,0,0,1-2.78-1.33,3,3,0,0,1-.32-3.37,3.11,3.11,0,0,1,2.73-1.87H89.31a5.88,5.88,0,0,1,5.82,4.65v.75ZM92.94,58.12V7.59a3.63,3.63,0,0,0-3.21-4,3.48,3.48,0,0,0-.79,0H60a.86.86,0,0,0-.91,1,1,1,0,0,0,.85,1H84.4c1.07-.22,1.07-.22,1.07.8v5.87c0,.64,0,.75-.81.75H60.09a1,1,0,0,0-.8,1,.86.86,0,0,0,.74,1H84.66c.59,0,.86,0,.81.75v6c0,.59,0,.7-.75.7H60a1,1,0,0,0-.91,1,1,1,0,0,0,.8,1H84.5c.54,0,.75,0,.75.75v5.88c.22,1.12.22,1.12-.8,1.12H59.88a.91.91,0,0,0-.8,1,1,1,0,0,0,.85,1H84.61c.48,0,.64,0,.64.64v5.88c0,1,0,.91-.91.91H59.88a.9.9,0,0,0-.8,1h0c0,.54.32.8.85.91H84.56c.53,0,.69,0,.69.69v5.77c0,.81,0,.81-.8.81H59.77a1,1,0,0,0,0,1.92H84.45c.59,0,.7,0,.7.75v5.87c0,.8,0,.8-.86.8H60.63a2.48,2.48,0,0,0-.86,0,.8.8,0,0,0-.69.7,1,1,0,0,0,.37,1,1.57,1.57,0,0,0,1,0h24c.8,0,.8,0,.8.75v46.37a3.8,3.8,0,0,0,3.86,3.73,4.57,4.57,0,0,0,.52,0,3.83,3.83,0,0,0,3.31-4.06Z"/><path class="cls-1" d="M0,104.22a3.32,3.32,0,0,1,.37-1.82A13.19,13.19,0,0,1,16,92.25a11.72,11.72,0,0,1,1.54.43c.59,0,.7,0,.7-.48V69.44c0-2.83.37-5.66.59-8.49,0-4.33.58-8.66.9-13s.75-9.94,1.07-14.91l.91-12.76c.37-5.34.75-10.69,1.18-16V3.15A2.39,2.39,0,0,1,24.57.59,4.79,4.79,0,0,0,26.39,0h1.23l1.6.48A2.72,2.72,0,0,1,31.14,3c0,4.87.7,9.73,1,14.53s.58,8.28.9,12.45.7,9.88,1.07,14.85.64,8.6.91,12.93c.27,3.42.59,6.83.75,10.25V91.93c0,.91,0,.91.8.64a13.35,13.35,0,0,1,16.74,8.73,12,12,0,0,1,.46,2,12.79,12.79,0,0,1-1.71,8.92V113a18.65,18.65,0,0,1,5.61,4.81,2.18,2.18,0,0,1-1,3.52H55.66a3.07,3.07,0,0,1-1.34-.8,13.47,13.47,0,0,0-5.87-4,1.34,1.34,0,0,0-1.23,0,12.91,12.91,0,0,1-13.94-.32,12.8,12.8,0,0,1-6.09-11.43V83.44a.34.34,0,0,0-.38-.32c-.37,0-.37,0-.37.32V104.8a13.69,13.69,0,0,1-1.55,6.52A13.3,13.3,0,0,1,.16,108.06,11,11,0,0,0,0,106.35Zm51.87,11.16-.54-.32-1.49-.75c-1.12-.48-1.34-1.23-.54-2.19a10.26,10.26,0,0,0,2.35-5.93A11,11,0,0,0,35.52,95.62c-1.23.64-2,0-2-1.23V74c0-5.34-.38-10.36-.75-15.49s-.75-10.68-1.18-16c-.32-4.28-.59-8.55-.91-12.82S30,19.71,29.65,14.74L28.84,3.42c0-.32,0-.8-.53-.75s0,.48,0,.75V62.28a1.12,1.12,0,0,1-1.06,1.18h-.17A1.07,1.07,0,0,1,26,62.4c0-.06,0-.11,0-.17V2.67a1.08,1.08,0,0,0-.37.64l-.53,2c-.38,4.86-.75,9.72-1.07,14.58l-.8,11.38c-.43,5.34-.81,11-1.18,16.4-.32,4.33-.69,8.65-.69,13,0,3.21-.59,6.41-.59,9.67v24c0,1.33-.8,1.81-1.92,1.23a10.68,10.68,0,0,0-16.4,11.21,11,11,0,0,0,17,7.69,10.67,10.67,0,0,0,4.86-9.18V82.26c0-1.07.37-1.49,1.44-1.49h2.35c1.23,0,1.55.32,1.55,1.6v23A10.68,10.68,0,0,0,35.58,115a10.36,10.36,0,0,0,11.05-.53,2.15,2.15,0,0,1,2,0Z"/><path class="cls-1" d="M22.06,105.39a8.71,8.71,0,1,1-17.41-.32h0a8.71,8.71,0,1,1,17.41.32Zm-2.3,0a6.41,6.41,0,1,0-6.41,6.41h.06a6.42,6.42,0,0,0,6.36-6.46s0-.07,0-.11Z"/><path class="cls-1" d="M40.76,96.58a8.59,8.59,0,0,1,8.65,8.54v.27a8.71,8.71,0,1,1-8.65-8.81Zm0,2.29a6.41,6.41,0,1,0,6.35,6.47v-.11A6.35,6.35,0,0,0,40.76,98.87Z"/><path class="cls-1" d="M27,77.35A5.35,5.35,0,1,1,32.37,72,5.34,5.34,0,0,1,27,77.35Zm0-8.23a3,3,0,1,0,3,2.94h0a2.89,2.89,0,0,0-2.83-2.94Z"/></g></g></g></g></svg>