<svg xmlns="http://www.w3.org/2000/svg" viewBox="0 0 68.78 91.31"><defs><style>.cls-1{fill:#fb8807;}</style></defs><g id="Layer_2" data-name="Layer 2"><g id="Layer_1-2" data-name="Layer 1"><g id="Layer_2-2" data-name="Layer 2"><g id="Layer_1-2-2" data-name="Layer 1-2"><path class="cls-1" d="M34.36,91.31H9.18A8.93,8.93,0,0,1,0,82.65V57.27a10.24,10.24,0,0,1,8-10c.56-.13.73-.34.7-.88V43.62a3.48,3.48,0,0,1,3.12-3.81,2.58,2.58,0,0,1,.68,0H56.8a3.49,3.49,0,0,1,3.85,3.11,3.05,3.05,0,0,1,0,.74v3a.63.63,0,0,0,.54.72h0a10.18,10.18,0,0,1,7.57,10.23V82.05a8.91,8.91,0,0,1-8.56,9.26H34.36Zm0-1.54H59.45a7.39,7.39,0,0,0,7.76-7c0-.24,0-.47,0-.71V57.34a8.73,8.73,0,0,0-8.62-8.82H10.47A8.69,8.69,0,0,0,1.56,57a2.26,2.26,0,0,0,0,.26q-.06,12.56,0,25.11a7.39,7.39,0,0,0,7.36,7.4H34.36ZM34.62,47h24c.4,0,.52-.16.51-.53v-3a1.91,1.91,0,0,0-1.69-2.11,2.26,2.26,0,0,0-.45,0H12.35a1.91,1.91,0,0,0-2.12,2.06V46c0,1,0,1,1,1Z"/><path class="cls-1" d="M32.57,25.07V18.64a2.86,2.86,0,0,1,5.7-.48,1.93,1.93,0,0,1,0,.48v.6a1.57,1.57,0,0,0,3.12.35,1,1,0,0,0,0-.35V13a.7.7,0,0,1,.65-.75.17.17,0,0,1,.1,0,.71.71,0,0,1,.75.75v6.28a3.09,3.09,0,1,1-6.17.35v-.35a5.7,5.7,0,0,0-.06-1.17,1.16,1.16,0,0,0-1.25-1,1.24,1.24,0,0,0-1.23.91,2.79,2.79,0,0,0-.09,1V32a3.33,3.33,0,0,1-3.33,3.33,3.39,3.39,0,0,1-1.92-.61,3.44,3.44,0,0,1-1.43-3V21.09c0-1.37-.5-2.07-1.48-2.09s-1.53.71-1.53,2.07V26.9a3.69,3.69,0,1,1-7.36.54,4.86,4.86,0,0,1,0-.54V21.67c0-.55.1-1.05.77-1s.76.49.76,1V27.1a2.23,2.23,0,0,0,1.67,2.21,2.18,2.18,0,0,0,2.39-1.11,2.58,2.58,0,0,0,.25-1.31V20.72A3.06,3.06,0,0,1,29,20.11a3.11,3.11,0,0,1,0,.61v11a1.83,1.83,0,0,0,1.59,2,1.79,1.79,0,0,0,2-2C32.56,29.53,32.57,27.31,32.57,25.07Z"/><path class="cls-1" d="M40,5.63c.54.46,1,.81,1.39,1.21A4.48,4.48,0,0,1,42.7,9.57c0,.53-.11,1-.71,1s-.76-.35-.84-.84a3.79,3.79,0,0,0-4.36-3.12,4.21,4.21,0,0,0-.48.12C32.54,7.8,28.76,8.91,25,10a8.49,8.49,0,0,0-6.4,7.76v.37a.74.74,0,0,1-.79.81.81.81,0,0,1-.81-.87,9.56,9.56,0,0,1,2-5.77,9.77,9.77,0,0,1,5.36-3.72L52.87.27A4.13,4.13,0,0,1,55.79,8l-.38.12c-2.91,1-5.86,1.77-8.79,2.65l-1.36.41c-.56.17-1.2.41-1.45-.35s.41-.95,1-1.11l9.94-3a2.7,2.7,0,0,0,2.06-2.35A2.58,2.58,0,0,0,54.42,1.6a2.49,2.49,0,0,0-1.08.15l-10.1,3Z"/><path class="cls-1" d="M21.2,22.43v2.84c0,.57-.2,1-.82,1s-.73-.5-.73-1V19.75c0-.53.16-1,.75-1s.81.46.8,1Z"/><path class="cls-1" d="M37.55,27.73v-2c0-.51.23-.89.79-.88a.74.74,0,0,1,.76.74.41.41,0,0,1,0,.11v4.11a.73.73,0,0,1-.63.83h-.13c-.55,0-.78-.36-.78-.88Z"/><path class="cls-1" d="M42.41,26.5v1a.75.75,0,0,1-.72.79H41.6a.74.74,0,0,1-.73-.75V25.42a.72.72,0,0,1,.77-.82c.52,0,.75.33.77.82S42.41,26.15,42.41,26.5Z"/><path class="cls-1" d="M21.2,34.07V35a.73.73,0,0,1-.72.74h-.05a.68.68,0,0,1-.73-.64.11.11,0,0,1,0-.05c0-.65,0-1.29,0-1.93a.71.71,0,0,1,.7-.72h0a.75.75,0,0,1,.79.73h0C21.22,33.42,21.2,33.74,21.2,34.07Z"/><path class="cls-1" d="M47.87,73.24l-3.07.43a3,3,0,0,0-.67,0c-.52,0-.94-.12-1-.68s.37-.8.91-.84a22.18,22.18,0,0,0,7-1.64,15.16,15.16,0,0,0,5.82-4.08c.39-.46.35-.69-.18-1-4.54-2.75-9.27-2.8-14.14-1-.38.13-.74.29-1.12.43a.73.73,0,0,1-1-.36l0-.07a.76.76,0,0,1,.43-1l.08,0A21.87,21.87,0,0,1,44,62.34a.54.54,0,0,0,.41-.27,5.56,5.56,0,0,0-4.24-.57,15.18,15.18,0,0,0-6.65,4c-.35.32-.68.66-1,1s-.84.74-1.35.26-.18-.93.22-1.34a26.84,26.84,0,0,1,4.17-3.51l.34-.24c0-.3-.26-.25-.41-.27a17.22,17.22,0,0,0-6.24,0l-.45.07a.77.77,0,0,1-1-.57c-.13-.51.22-.83.73-.94a18.6,18.6,0,0,1,7.93.1,6.79,6.79,0,0,0,3.35,0,6.9,6.9,0,0,1,6.38,1.41,1.59,1.59,0,0,0,1.17.33A16.22,16.22,0,0,1,58,64.5c1,.69,1.18,1.29.46,2.36a13.09,13.09,0,0,1-5.16,4.31,11.4,11.4,0,0,0-3,2.16c-2.23,2.21-4.78,4.06-8,4.37-2.74.27-5.34,1.18-8.07,1.42-4.51.4-8.64-.41-12-3.67a14.72,14.72,0,0,1-3.62-5.77,1.82,1.82,0,0,0-1.06-1.23,22.29,22.29,0,0,1-3-1.71c-.49-.33-1-.71-.54-1.32s.9-.29,1.37,0c.85.52,1.72,1,2.56,1.53.49.31.75.3,1.08-.29a13.54,13.54,0,0,1,6-5.53,1,1,0,0,1,1-.06.67.67,0,0,1,.41.66.81.81,0,0,1-.53.75,13.11,13.11,0,0,0-3.21,2.16,11.81,11.81,0,0,0-2.14,2.58c-.44.74-.43.77.41,1.08a32.88,32.88,0,0,0,13.51,1.9,43.71,43.71,0,0,0,12.88-2.74c.5-.19,1-.23,1.2.33s-.14.93-.67,1.12c-8.18,3-16.48,3.93-25,1.64-.79-.21-1.57-.48-2.35-.72a.08.08,0,0,0-.07,0c2.22,6.19,8.47,9,15.78,7.37-.11-.35-.46-.35-.69-.47a15.58,15.58,0,0,1-2.09-1.31c-.43-.34-.72-.76-.31-1.26s.82-.3,1.25,0c4.28,3.25,9.16,2.71,13.32-.62A.26.26,0,0,0,47.87,73.24Z"/><path class="cls-1" d="M64.86,81.16a7.1,7.1,0,0,1-6.59,6.7,3,3,0,0,1-.6,0,.7.7,0,0,1-.67-.73v-.06a.75.75,0,0,1,.74-.71A6.73,6.73,0,0,0,59.63,86a5.46,5.46,0,0,0,3.62-4.53,1.17,1.17,0,0,1,.06-.45c0-.56.21-1,.85-1S64.89,80.46,64.86,81.16Z"/><path class="cls-1" d="M28.93,45H14.59a3.64,3.64,0,0,1-.66,0,.74.74,0,0,1-.58-.7.71.71,0,0,1,.58-.76,3.75,3.75,0,0,1,.82,0h28.3a5.47,5.47,0,0,1,.81,0,.74.74,0,0,1,0,1.47h0a4.69,4.69,0,0,1-.75,0Z"/><path class="cls-1" d="M51.78,45H48.43c-.53,0-1-.16-1-.76s.44-.79,1-.79h6.78c.55,0,1,.22,1,.8s-.46.76-1,.75Z"/></g></g></g></g></svg>